<?xml version="1.0" standalone="no"?>
<!DOCTYPE svg PUBLIC "-//W3C//DTD SVG 20010904//EN"
 "http://www.w3.org/TR/2001/REC-SVG-20010904/DTD/svg10.dtd">
<svg version="1.0" xmlns="http://www.w3.org/2000/svg"
 width="800.000000pt" height="800.000000pt" viewBox="0 0 800.000000 800.000000"
 preserveAspectRatio="xMidYMid meet">
<metadata>
Created by potrace 1.14, written by Peter Selinger 2001-2017
</metadata>
<g transform="translate(0.000000,800.000000) scale(0.100000,-0.100000)"
fill="#000000" stroke="none">
<path d="M0 4000 l0 -4000 853 1 c619 1 844 4 825 12 -30 12 -37 27 -13 27 8
0 15 7 15 16 0 8 -4 13 -9 9 -5 -3 -12 4 -16 15 -3 11 -11 20 -16 20 -5 0 -9
9 -9 19 0 11 -5 23 -10 26 -6 4 -8 10 -5 15 3 5 -4 14 -15 20 -11 6 -20 17
-20 26 0 8 -7 17 -15 20 -23 9 -18 26 5 19 15 -5 18 -3 14 9 -3 9 -16 16 -28
17 -20 0 -20 1 -1 9 18 8 17 9 -7 9 -19 1 -26 5 -22 15 4 11 -1 13 -18 10 -22
-4 -22 -4 2 7 15 7 20 13 13 16 -8 3 -11 14 -7 29 5 20 2 24 -16 24 -13 0 -24
8 -27 20 -3 13 -14 20 -28 20 -29 0 -55 10 -55 20 0 5 9 6 20 3 29 -8 25 16
-5 27 -14 5 -25 15 -25 21 0 8 -5 7 -17 -2 -15 -12 -16 -12 -10 4 3 9 2 17 -3
17 -6 0 -10 14 -10 30 0 21 -5 30 -16 30 -10 0 -13 6 -10 18 3 9 2 23 -3 31
-7 11 -11 10 -20 -5 -6 -11 -11 -15 -11 -10 0 5 -6 3 -14 -3 -19 -16 -32 4
-16 24 9 11 5 13 -25 11 -23 -2 -34 1 -32 8 2 6 16 10 31 8 14 -1 26 2 26 8 0
12 -41 30 -52 23 -5 -2 -8 0 -8 6 0 5 -3 18 -6 28 -5 15 -4 15 5 3 9 -12 11
-11 11 8 0 27 -20 29 -27 2 -3 -11 -13 -20 -22 -19 -10 0 -11 2 -3 6 6 2 12
22 12 43 0 34 -2 38 -22 34 -13 -2 -17 -2 -11 2 7 3 13 10 13 16 0 5 7 16 15
25 8 8 12 19 9 25 -3 5 -13 0 -21 -12 -15 -21 -15 -21 -32 -2 -9 11 -25 22
-36 25 -18 4 -18 5 2 6 12 0 25 -4 28 -9 10 -16 35 -12 29 5 -4 9 -20 16 -43
16 -30 2 -31 3 -8 6 25 4 39 23 16 23 -5 0 -8 3 -5 8 2 4 -3 16 -11 27 -13 16
-15 17 -10 3 4 -12 1 -18 -9 -18 -12 0 -14 7 -9 32 6 25 4 30 -5 22 -6 -7 -20
-9 -31 -7 -15 4 -17 8 -8 19 9 11 8 14 -1 14 -9 0 -8 6 4 19 10 10 16 25 15
33 -3 26 1 49 9 44 4 -2 7 7 6 22 -1 15 -2 27 -3 27 -2 0 -4 8 -6 18 -2 9 1
15 5 12 5 -3 11 -1 14 4 3 5 -1 11 -9 15 -15 5 -39 -26 -28 -38 3 -3 1 -6 -5
-6 -7 0 -12 9 -12 20 0 14 -7 20 -22 20 -19 0 -20 -2 -8 -11 12 -9 12 -10 -4
-5 -14 5 -17 2 -12 -9 3 -9 2 -13 -4 -10 -11 7 -33 -12 -43 -35 -5 -13 -6 -13
-6 0 -1 8 9 26 22 40 24 26 51 89 42 98 -2 3 3 11 13 19 16 14 16 14 -1 9 -20
-6 -21 2 -6 64 6 25 12 53 14 63 2 10 7 28 9 40 4 13 0 9 -9 -8 -8 -16 -17
-46 -20 -65 -4 -19 -15 -57 -25 -85 -22 -61 -48 -150 -54 -187 -3 -15 -16 -49
-29 -77 -31 -60 -116 -309 -127 -371 l-9 -45 2 42 c1 24 -4 48 -10 54 -7 7 -8
21 -3 39 6 20 5 30 -3 33 -9 3 -8 8 2 20 9 11 10 17 2 17 -6 0 -11 -5 -11 -11
0 -13 -25 -6 -26 7 -6 45 -20 77 -38 84 -12 5 -15 9 -8 9 17 1 15 21 -2 21
-19 0 -46 44 -46 74 0 14 -9 31 -21 39 -13 9 -16 17 -10 22 15 9 14 25 -1 25
-19 1 -55 81 -52 117 1 27 -2 33 -20 34 -11 0 -15 3 -9 6 10 4 10 10 -2 26 -8
12 -15 29 -15 39 0 11 -7 18 -19 18 -14 0 -17 6 -14 24 3 16 -4 36 -21 59 -19
25 -23 36 -14 45 9 9 7 13 -5 18 -9 3 -14 10 -12 15 3 5 -1 22 -10 40 -9 17
-14 33 -11 37 3 3 2 10 -3 16 -16 20 -22 64 -9 68 9 3 9 6 0 12 -7 4 -12 2
-12 -3 0 -6 -6 -11 -14 -11 -9 0 -12 8 -8 25 2 14 8 25 13 25 5 0 9 7 9 15 0
8 -5 15 -11 15 -15 0 -40 27 -38 42 3 21 -13 78 -22 78 -5 0 -11 23 -15 51 -4
28 -13 56 -20 64 -8 8 -10 16 -5 20 5 3 12 1 16 -5 12 -20 26 -10 15 10 -6 11
-19 19 -28 18 -15 -3 -17 7 -18 72 0 50 -6 86 -18 108 -12 23 -14 37 -7 51 8
14 5 23 -9 39 -21 22 -28 92 -10 92 6 0 10 -5 10 -12 0 -6 2 -9 5 -7 2 3 -7
27 -21 54 -15 30 -24 61 -21 77 2 20 -2 29 -15 34 -16 5 -16 7 -3 20 20 20 19
26 -7 59 l-22 28 30 -7 c23 -5 25 -4 11 4 -10 7 -17 23 -17 40 0 17 -5 30 -11
30 -8 0 -8 4 -1 13 14 16 -5 219 -21 229 -7 4 -7 11 0 20 11 14 11 57 0 75 -9
15 -5 113 5 119 14 9 8 24 -9 24 -16 1 -16 2 -3 13 15 12 24 67 11 67 -10 0
-7 32 4 49 5 9 3 18 -8 25 -8 7 -16 27 -17 46 -3 53 -1 60 15 60 19 0 19 9 -1
31 -15 17 -15 20 0 44 9 14 21 25 26 25 6 0 10 5 10 11 0 6 -7 9 -15 5 -8 -3
-19 3 -25 14 -15 29 -12 40 11 40 18 0 20 4 14 23 -4 12 -7 42 -7 67 1 25 1
54 1 65 0 24 0 27 7 88 3 26 10 47 14 47 4 0 8 23 8 51 1 28 5 56 11 63 11 13
8 63 -4 104 -6 18 -4 22 13 22 24 0 41 38 22 50 -9 6 -7 11 6 19 18 10 18 10
-3 11 -25 0 -30 14 -11 26 6 4 14 2 16 -4 2 -7 8 -12 13 -12 10 0 -10 40 -25
51 -10 8 22 59 36 59 6 0 8 14 5 33 -3 17 -1 63 6 101 11 63 15 70 47 88 31
18 32 19 8 14 -15 -3 -30 -2 -33 4 -3 5 1 10 9 10 9 0 16 7 16 15 0 8 6 15 13
15 9 0 9 2 -1 9 -11 7 -11 9 2 14 23 9 22 67 -1 68 -12 1 -10 4 7 9 14 4 19 8
12 9 -24 2 -1 21 24 21 24 0 24 1 9 17 -20 19 -14 67 15 119 11 18 17 41 14
49 -4 8 -1 15 6 15 6 0 10 6 7 13 -7 21 12 47 36 47 22 0 22 1 -3 20 -26 20
-23 23 20 21 19 -2 22 0 10 8 -13 9 -24 85 -10 76 3 -2 12 0 20 6 10 6 11 9 3
9 -23 0 -14 18 12 24 27 7 32 20 13 32 -9 6 -5 10 12 14 26 6 29 22 15 67 -5
17 -1 24 22 35 15 7 28 18 28 23 2 23 17 55 27 55 5 0 7 7 4 16 -4 10 -2 13 6
8 7 -5 9 1 6 20 -4 19 0 29 13 37 10 5 16 16 13 24 -4 8 1 18 10 21 9 3 16 13
16 21 0 8 -4 12 -9 9 -5 -3 -11 1 -15 9 -4 10 1 15 15 15 17 0 20 5 16 23 -6
20 -5 20 7 4 12 -16 14 -15 26 15 24 64 34 79 48 73 11 -4 13 1 9 21 -3 16 0
27 9 31 10 4 11 9 4 18 -12 15 -3 25 22 25 15 0 18 5 13 19 -4 14 1 25 20 37
14 9 25 25 25 36 0 16 5 19 21 15 14 -4 18 -2 11 6 -5 7 -3 26 3 46 7 20 15
29 19 22 4 -6 5 -15 1 -20 -3 -5 -1 -12 5 -16 6 -4 10 6 10 24 0 16 -6 32 -12
35 -8 4 -9 8 -3 11 49 24 73 46 71 62 -2 10 10 30 28 45 24 21 27 27 14 28
-41 1 -9 30 33 30 12 0 19 7 19 19 0 10 7 24 15 31 11 9 14 22 10 42 -8 35 7
37 25 3 13 -25 30 -33 30 -15 0 6 -4 10 -10 10 -5 0 -10 7 -10 15 0 8 5 15 10
15 6 0 10 -6 10 -12 0 -26 20 17 20 45 0 17 5 27 15 27 8 0 15 5 15 11 0 8 5
8 15 -1 12 -10 15 -10 15 4 0 9 -6 16 -12 16 -8 1 -6 6 4 14 10 7 18 18 18 25
0 16 37 51 55 51 9 0 16 10 16 23 1 17 3 16 8 -8 l7 -30 7 37 c6 30 13 38 37
43 26 6 30 11 30 41 0 20 4 33 8 30 15 -9 83 69 76 87 -7 18 11 24 21 7 7 -12
26 -14 23 -2 -5 12 26 47 42 47 8 0 14 8 14 18 -1 9 3 17 8 17 18 0 66 53 61
67 -4 9 5 13 33 14 31 0 35 2 19 9 -17 7 -17 9 -2 9 10 1 17 9 17 22 0 12 5
19 13 16 6 -2 19 2 28 10 9 8 27 15 39 16 13 1 28 13 37 30 9 18 20 27 29 23
9 -4 14 1 14 15 0 15 5 19 15 15 9 -3 19 3 26 15 6 12 17 18 25 15 9 -3 14 1
14 14 0 13 5 18 16 13 10 -4 17 2 21 17 5 18 11 21 37 17 17 -3 25 -3 19 0
-23 9 -15 32 9 25 17 -4 20 -2 15 11 -5 13 -1 17 17 17 13 0 35 11 50 25 25
23 39 29 58 26 4 0 5 6 2 14 -5 11 1 15 20 15 14 0 26 5 26 11 0 5 10 9 22 7
18 -2 25 4 33 27 9 26 16 30 50 33 23 2 50 13 63 25 13 12 25 20 27 17 3 -3
14 3 26 13 12 10 30 17 40 14 12 -3 19 0 19 9 0 9 13 15 38 15 30 2 32 3 9 6
-30 5 -27 23 4 23 10 0 19 5 19 10 0 6 16 10 35 10 22 0 38 6 41 15 4 8 14 15
24 15 11 0 22 5 25 11 4 6 13 8 21 5 8 -3 14 -2 14 3 0 5 15 12 33 16 17 4 39
10 47 12 8 3 28 7 43 10 16 3 31 12 34 19 3 9 13 12 27 8 14 -3 29 3 44 17 20
17 32 20 69 16 25 -3 40 -1 33 3 -9 6 0 12 28 21 23 7 42 16 42 20 0 5 7 6 15
3 9 -4 15 0 15 10 0 9 5 16 10 16 6 0 10 -6 10 -14 0 -9 9 -14 20 -13 11 1 20
5 20 10 0 5 6 4 14 -2 11 -10 16 -8 21 8 9 28 25 27 26 -1 1 -17 3 -18 6 -6 3
11 13 17 26 15 12 -1 21 3 20 9 -3 13 94 28 119 19 9 -4 19 -2 23 4 4 7 28 9
63 6 31 -3 51 -2 44 1 -17 8 -5 24 13 17 9 -3 22 0 30 7 7 6 46 13 84 14 60 3
71 0 71 -13 1 -13 2 -13 11 2 10 18 11 18 25 0 7 -10 14 -13 14 -6 1 30 151
39 187 11 7 -6 19 -5 32 1 28 15 39 14 44 -6 4 -14 5 -13 6 4 2 33 18 36 29 6
7 -18 11 -22 11 -10 1 20 17 23 24 5 4 -10 6 -10 6 0 1 17 90 16 134 -3 21 -9
67 -15 107 -15 56 0 70 -3 70 -15 0 -11 12 -15 45 -15 36 0 45 3 45 18 1 16 1
16 11 -1 8 -13 14 -15 29 -7 12 6 21 7 25 0 3 -5 12 -7 19 -4 8 3 17 1 21 -5
3 -6 22 -11 41 -11 46 0 83 -18 63 -31 -10 -6 -8 -9 9 -9 12 0 22 4 22 9 0 4
23 4 51 -2 38 -7 53 -15 57 -30 4 -16 11 -18 43 -13 21 3 40 2 44 -4 3 -5 28
-12 55 -16 27 -4 47 -10 44 -15 -3 -5 0 -9 6 -9 6 0 18 -6 26 -14 8 -8 36 -18
62 -21 48 -6 106 -29 130 -52 12 -12 48 -18 79 -14 7 1 17 -8 23 -19 6 -11 17
-20 24 -20 8 0 26 -7 42 -14 15 -8 31 -13 36 -10 4 3 11 -2 14 -10 3 -9 14
-16 24 -16 9 0 30 -11 46 -25 l29 -25 -29 0 c-16 0 -26 -3 -23 -6 6 -7 66 -16
99 -16 9 1 29 -11 44 -26 19 -19 28 -23 32 -14 3 10 8 7 19 -7 8 -12 21 -21
29 -21 8 0 14 -7 14 -15 0 -8 5 -15 10 -15 6 0 10 6 10 12 0 7 18 -7 40 -31
22 -24 40 -37 40 -30 0 10 5 8 18 -4 15 -16 15 -19 2 -28 -13 -9 -12 -10 3 -5
16 5 52 -8 67 -24 3 -3 21 -13 40 -23 19 -9 29 -17 23 -17 -23 0 -14 -19 12
-26 14 -3 25 -10 25 -15 0 -5 9 -9 20 -9 11 0 20 -6 20 -13 0 -7 14 -21 30
-30 17 -10 30 -22 30 -28 0 -5 4 -9 10 -9 5 0 28 -18 52 -40 24 -22 44 -35 46
-30 5 14 39 -22 44 -45 2 -11 13 -21 25 -23 24 -4 73 -62 73 -86 0 -9 5 -16
10 -16 6 0 10 4 10 10 0 5 7 7 15 4 8 -4 13 -10 10 -15 -3 -4 4 -13 15 -19 11
-6 20 -17 20 -25 0 -8 9 -15 19 -15 11 0 23 -9 26 -20 3 -11 11 -20 16 -20 5
0 13 -10 18 -22 14 -36 73 -99 87 -94 14 5 28 -10 29 -30 0 -21 54 -74 77 -75
17 -1 18 -3 6 -6 -10 -2 -18 -8 -18 -13 0 -11 46 -40 63 -40 9 0 12 -9 9 -30
-4 -26 -1 -30 18 -30 16 0 20 -4 16 -15 -3 -9 1 -18 11 -22 14 -6 14 -8 -3
-20 -16 -12 -15 -13 14 -13 32 0 46 -23 20 -33 -15 -5 28 -47 48 -47 15 0 39
-39 36 -57 -4 -18 30 -53 50 -53 10 0 18 -4 18 -10 0 -5 -9 -10 -21 -10 -30 0
-15 -15 30 -30 43 -14 59 -49 24 -51 -14 0 -13 -3 5 -12 15 -7 22 -17 19 -28
-3 -10 5 -26 17 -38 37 -35 45 -49 43 -76 -1 -16 4 -30 12 -33 10 -3 12 0 8
12 -4 9 -2 16 3 16 16 0 21 -19 10 -40 -9 -16 -8 -22 4 -26 8 -3 12 -12 9 -21
-4 -9 1 -21 12 -29 10 -7 15 -20 12 -29 -4 -8 -2 -15 3 -15 11 0 70 -59 70
-71 0 -5 5 -9 12 -9 9 0 9 -3 0 -12 -18 -18 -15 -38 6 -35 26 3 26 -17 0 -25
-13 -3 -17 -6 -10 -7 20 -2 57 -40 57 -59 0 -9 -6 -20 -15 -24 -10 -4 -6 -7
13 -7 27 -1 40 -21 12 -21 -19 0 -19 -11 -1 -35 8 -11 19 -16 30 -12 9 4 16 2
16 -3 0 -6 -9 -10 -20 -10 -11 0 -20 -4 -20 -10 0 -5 11 -10 24 -10 31 0 56
-10 56 -21 0 -5 -9 -4 -20 3 -28 18 -37 2 -12 -20 12 -11 19 -21 16 -24 -3 -3
-1 -21 5 -39 5 -19 10 -26 10 -16 1 10 5 16 10 13 4 -3 6 -28 3 -56 -4 -41 -2
-50 11 -50 20 0 32 -22 41 -72 4 -21 11 -38 16 -38 6 0 10 -10 10 -23 0 -13 5
-28 12 -35 9 -9 9 -15 0 -24 -17 -17 -15 -28 7 -28 11 0 23 -4 26 -10 3 -5 2
-10 -4 -10 -7 0 -7 -8 -2 -22 6 -17 4 -26 -8 -35 -15 -11 -14 -12 1 -13 11 0
15 -5 12 -15 -4 -9 0 -15 10 -15 21 0 20 -10 -1 -26 -16 -11 -16 -13 7 -24 29
-13 52 -84 39 -119 -6 -15 -3 -22 14 -27 21 -7 20 -8 -8 -15 -21 -5 -24 -7 -9
-8 17 -1 23 -9 28 -40 3 -22 12 -42 18 -44 10 -4 10 -8 -1 -15 -12 -9 -12 -13
-2 -26 8 -9 14 -39 14 -66 1 -37 5 -50 16 -50 11 0 11 -3 -3 -13 -17 -12 -17
-14 -2 -20 20 -8 20 -21 0 -41 -14 -15 -14 -16 5 -16 28 0 27 -18 -1 -23 l-23
-4 23 -2 c12 0 23 -7 23 -13 1 -7 2 -23 3 -36 0 -12 7 -26 15 -31 9 -6 10 -11
2 -15 -15 -10 -14 -51 2 -76 10 -17 9 -22 -3 -30 -12 -8 -11 -10 6 -10 20 0
21 -4 16 -45 -3 -31 -1 -45 7 -45 7 0 10 -4 6 -9 -3 -5 -1 -12 5 -16 16 -10
12 -25 -5 -19 -23 9 -13 -55 11 -74 18 -13 18 -14 -3 -7 -14 4 -23 2 -23 -4 0
-6 4 -11 9 -11 12 0 20 -92 9 -107 -6 -8 -1 -17 17 -29 l26 -17 -23 -15 c-13
-8 -25 -17 -27 -18 -2 -2 2 -11 10 -20 11 -13 14 -62 15 -215 1 -109 5 -203
10 -210 5 -9 2 -10 -9 -6 -10 3 -17 2 -17 -3 0 -6 5 -10 11 -10 6 0 9 -7 6
-15 -4 -8 -2 -17 4 -20 15 -10 0 -25 -24 -26 -21 0 -21 -1 -2 -9 11 -5 16 -9
11 -9 -5 -1 -1 -10 9 -21 17 -19 17 -21 0 -40 -13 -15 -16 -30 -13 -64 3 -25
1 -49 -5 -55 -7 -7 -6 -15 2 -25 10 -12 9 -21 -4 -47 -10 -18 -15 -43 -12 -59
3 -15 1 -32 -5 -38 -14 -14 -17 -83 -5 -99 6 -8 6 -13 -1 -13 -6 0 -9 -12 -7
-26 1 -15 -3 -28 -12 -31 -10 -4 -11 -9 -2 -19 8 -10 8 -14 0 -14 -15 0 -14
-27 1 -32 7 -3 9 -12 5 -22 -4 -11 -13 -16 -22 -12 -8 3 -15 1 -15 -4 0 -6 7
-10 15 -10 12 0 14 -7 9 -27 -4 -16 -11 -36 -15 -45 -5 -9 -9 -34 -10 -55 0
-21 -3 -32 -6 -26 -3 10 -8 9 -20 -2 -13 -13 -13 -21 -3 -46 10 -23 10 -33 1
-42 -6 -6 -11 -21 -11 -34 0 -13 -5 -23 -11 -23 -6 0 -8 -7 -5 -16 15 -39 18
-64 7 -64 -6 0 -11 6 -11 14 0 8 -4 17 -9 20 -8 6 -10 -11 -13 -122 -1 -23 -5
-31 -15 -28 -8 3 -17 -2 -20 -11 -4 -9 -1 -19 5 -21 17 -5 15 -29 -4 -36 -9
-3 -14 -13 -10 -21 3 -8 -3 -19 -12 -25 -13 -8 -14 -11 -4 -18 9 -6 12 -25 10
-53 -3 -44 -21 -60 -25 -23 -3 18 -2 18 6 -1 8 -16 10 -12 10 20 1 29 -2 36
-9 25 -8 -13 -10 -12 -10 3 0 9 -4 17 -8 17 -5 0 -6 -14 -4 -31 3 -20 0 -34
-9 -40 -10 -6 -11 -9 -1 -9 21 0 15 -67 -9 -89 -15 -14 -20 -27 -15 -44 4 -17
0 -30 -14 -42 -11 -10 -20 -27 -20 -37 0 -10 -10 -23 -23 -28 -12 -5 -16 -9
-9 -9 16 -1 15 -28 -2 -34 -8 -3 -12 -15 -9 -31 3 -13 -2 -39 -11 -57 -9 -18
-16 -38 -16 -45 0 -7 -6 -17 -13 -21 -17 -10 -47 -70 -47 -94 0 -10 -4 -21
-10 -24 -5 -3 -10 -15 -10 -26 0 -10 -6 -19 -14 -19 -7 0 -16 -13 -19 -29 -3
-16 -13 -36 -23 -45 -9 -10 -14 -25 -11 -37 5 -18 2 -20 -21 -15 -17 4 -22 3
-14 -2 18 -12 5 -63 -13 -55 -18 6 -41 -7 -27 -16 13 -8 -20 -77 -36 -73 -7 1
-12 -7 -12 -17 0 -26 -42 -90 -59 -91 -11 0 -11 -3 0 -16 11 -13 10 -18 -8
-32 -22 -18 -93 -116 -93 -129 0 -5 -14 -22 -30 -40 -17 -18 -30 -36 -30 -41
0 -5 -23 -33 -50 -62 -28 -29 -50 -59 -50 -65 0 -7 -7 -15 -15 -19 -8 -3 -15
-16 -15 -28 -1 -21 -2 -22 -14 -6 -16 21 -26 13 -26 -19 0 -14 -6 -23 -15 -23
-8 0 -15 -7 -15 -15 0 -8 -6 -12 -14 -9 -9 4 -16 -6 -21 -32 -6 -36 -9 -31
-49 97 -41 127 -54 171 -77 264 -14 57 -25 62 -39 20 -7 -20 -18 -39 -26 -42
-8 -3 -14 -9 -14 -15 0 -5 -8 -19 -17 -32 -16 -21 -18 -22 -62 -6 -56 18 -111
51 -111 65 -1 14 -39 63 -40 50 0 -6 7 -21 16 -33 9 -13 14 -25 11 -28 -2 -3
-17 16 -32 41 -20 35 -27 62 -28 103 -1 32 -6 62 -10 67 -5 6 -18 28 -31 50
-20 37 -25 40 -69 43 -26 2 -47 7 -47 11 0 5 -15 14 -32 21 -32 13 -115 73
-130 95 -7 10 -12 1 -9 -17 2 -13 -33 -8 -51 6 -10 7 -18 18 -18 25 0 6 -4 11
-9 11 -4 0 -3 -16 3 -35 8 -27 16 -35 34 -35 41 0 82 -30 117 -85 19 -30 35
-57 35 -61 0 -4 10 -16 23 -28 12 -12 38 -44 57 -73 19 -28 39 -49 44 -45 5 3
6 0 2 -7 -10 -16 100 -122 139 -135 26 -8 99 -75 110 -101 8 -19 9 -19 13 4 3
20 8 23 37 18 29 -5 34 -2 37 16 2 12 4 -48 4 -135 -1 -86 -2 -156 -3 -155 -5
6 -17 129 -16 170 1 32 -3 47 -11 44 -6 -2 -10 -20 -8 -41 2 -27 -1 -36 -13
-36 -10 0 -15 -10 -15 -30 0 -32 -9 -37 -27 -19 -16 16 -43 4 -42 -18 0 -11 3
-13 6 -5 2 6 9 10 14 6 10 -6 -7 -44 -25 -56 -6 -5 -24 -5 -41 -2 -29 6 -29 5
-10 -10 19 -14 18 -15 -15 -13 -19 1 -39 7 -43 12 -5 6 -7 4 -4 -5 3 -13 109
-15 865 -18 l862 -2 0 4000 0 4000 -4000 0 -4000 0 0 -4000z m1327 2564 c-3
-3 -12 -4 -19 -1 -8 3 -5 6 6 6 11 1 17 -2 13 -5z m-112 -74 c3 -5 1 -10 -4
-10 -6 0 -11 5 -11 10 0 6 2 10 4 10 3 0 8 -4 11 -10z m-173 -242 c-6 -6 -15
-8 -19 -4 -4 4 -1 11 7 16 19 12 27 3 12 -12z m-295 -414 c-3 -3 -12 -4 -19
-1 -8 3 -5 6 6 6 11 1 17 -2 13 -5z m6583 -203 c0 -6 -4 -13 -10 -16 -5 -3
-10 1 -10 9 0 9 5 16 10 16 6 0 10 -4 10 -9z m125 -331 c3 -5 1 -10 -4 -10 -6
0 -11 5 -11 10 0 6 2 10 4 10 3 0 8 -4 11 -10z m-6985 -20 c8 -5 11 -10 5 -10
-5 0 -17 5 -25 10 -8 5 -10 10 -5 10 6 0 17 -5 25 -10z m-200 -470 c0 -5 -4
-10 -10 -10 -5 0 -10 5 -10 10 0 6 5 10 10 10 6 0 10 -4 10 -10z m-190 -1940
c0 -5 -2 -10 -4 -10 -3 0 -8 5 -11 10 -3 6 -1 10 4 10 6 0 11 -4 11 -10z
m7727 -702 c-3 -8 -6 -5 -6 6 -1 11 2 17 5 13 3 -3 4 -12 1 -19z m-90 -315
c-3 -10 -5 -4 -5 12 0 17 2 24 5 18 2 -7 2 -21 0 -30z m-6682 -891 c-3 -3 -11
0 -18 7 -9 10 -8 11 6 5 10 -3 15 -9 12 -12z m-395 -62 c0 -5 -4 -10 -10 -10
-5 0 -10 5 -10 10 0 6 5 10 10 10 6 0 10 -4 10 -10z m506 -137 c-10 -10 -19 5
-10 18 6 11 8 11 12 0 2 -7 1 -15 -2 -18z m5069 -73 c3 -6 -1 -7 -9 -4 -18 7
-21 14 -7 14 6 0 13 -4 16 -10z m-13 -20 c10 0 18 -4 18 -10 0 -5 -5 -10 -11
-10 -18 0 -49 20 -49 32 0 9 3 9 12 0 7 -7 20 -12 30 -12z m39 -70 c10 0 19
-4 19 -9 0 -4 -15 -8 -34 -7 -33 1 -42 13 -21 28 6 4 12 3 13 -2 2 -6 12 -10
23 -10z m-4936 -37 c3 -13 2 -23 -3 -23 -11 0 -33 46 -24 54 8 8 18 -4 27 -31z
m5095 -190 c0 -7 -39 17 -46 28 -3 6 5 3 20 -6 14 -10 26 -19 26 -22z m-4798
-255 c-7 -7 -12 -8 -12 -2 0 14 12 26 19 19 2 -3 -1 -11 -7 -17z m4798 -98 c0
-5 -4 -10 -10 -10 -5 0 -10 5 -10 10 0 6 5 10 10 10 6 0 10 -4 10 -10z"/>
<path d="M4828 7673 c7 -3 16 -2 19 1 4 3 -2 6 -13 5 -11 0 -14 -3 -6 -6z"/>
<path d="M2293 7283 c9 -2 23 -2 30 0 6 3 -1 5 -18 5 -16 0 -22 -2 -12 -5z"/>
<path d="M3695 6874 c-237 -61 -285 -78 -380 -133 -80 -46 -195 -129 -195
-141 0 -5 -10 -12 -22 -15 -23 -8 -247 -232 -318 -318 -50 -61 -102 -160 -119
-222 -5 -22 -13 -90 -16 -151 -3 -61 -12 -151 -21 -200 -18 -99 -21 -299 -4
-354 15 -50 13 -70 -7 -71 -14 0 -15 -2 -3 -6 21 -9 36 -26 44 -51 4 -12 13
-22 19 -22 7 0 17 -8 22 -18 25 -46 46 -95 50 -117 1 -5 3 -12 4 -15 2 -3 4
-14 6 -25 2 -11 6 -31 10 -45 13 -50 35 -193 30 -198 -3 -3 0 -11 6 -19 6 -7
9 -22 6 -33 -3 -11 -2 -20 2 -20 4 0 5 -16 3 -36 -3 -27 1 -40 17 -55 21 -20
21 -20 22 3 1 18 3 16 8 -8 4 -17 11 -36 15 -42 4 -7 1 -12 -6 -12 -10 0 -9
-3 2 -9 30 -20 40 8 13 35 -13 13 -15 18 -5 22 10 3 10 7 1 18 -6 7 -9 21 -5
29 3 9 2 13 -4 10 -6 -3 -10 1 -10 11 0 14 -2 15 -17 3 -13 -11 -12 -5 5 24
22 37 31 67 12 37 -8 -12 -10 -10 -10 10 0 14 -3 36 -7 49 -4 17 -3 22 5 17
16 -9 15 7 0 22 -9 9 -9 12 1 12 8 0 11 11 9 33 -2 24 -7 31 -20 29 -13 -2
-16 3 -13 20 3 13 11 28 18 33 19 14 29 99 14 114 -9 10 -8 11 5 6 14 -6 16
-2 12 21 -3 15 -8 32 -11 37 -3 6 -1 7 5 3 7 -4 12 -2 12 3 0 6 -5 11 -11 11
-8 0 -8 4 0 14 12 15 12 86 0 86 -4 0 -3 16 1 36 7 29 6 34 -6 30 -11 -4 -10
1 3 22 17 26 17 26 0 13 -15 -12 -17 -11 -17 8 0 12 7 24 15 27 14 6 13 8 -2
20 -12 9 -14 13 -5 14 8 0 10 5 6 12 -5 8 -14 -1 -24 -25 -9 -20 -20 -34 -23
-30 -4 3 -3 11 2 17 15 18 17 61 4 59 -7 -2 -13 4 -13 12 0 19 29 20 36 1 3
-8 12 -12 21 -9 13 5 13 8 -3 17 -24 14 -30 38 -7 29 10 -4 14 -2 10 4 -9 15
15 61 30 56 7 -3 12 13 15 42 3 39 1 45 -17 45 -17 0 -17 2 5 17 14 10 26 15
28 13 4 -6 26 31 27 45 1 6 6 9 13 8 15 -4 16 13 2 22 -6 4 -7 12 -3 18 12 20
12 38 0 36 -24 -3 -34 1 -34 15 0 8 8 11 19 8 14 -3 17 0 12 12 -4 10 -13 15
-21 12 -8 -3 -11 -1 -8 4 3 6 13 10 21 10 8 0 12 5 9 10 -3 6 -1 10 4 10 6 0
11 5 11 10 0 7 -6 7 -19 1 -21 -12 -32 -5 -24 15 3 8 -1 14 -8 14 -7 0 -9 3
-6 6 4 4 12 2 20 -4 10 -8 16 -4 26 20 11 25 11 32 1 38 -7 5 -20 6 -27 3 -8
-3 0 9 16 28 17 18 31 37 31 41 0 13 -18 9 -22 -4 -3 -8 -7 -6 -11 5 -3 9 -3
16 1 16 22 -4 30 3 25 21 -3 13 0 20 8 20 11 0 11 2 -1 10 -10 6 -11 10 -2 10
14 0 16 36 2 45 -6 4 -7 11 -4 17 4 7 9 6 14 -2 5 -8 13 -9 21 -4 10 6 5 11
-16 20 l-30 13 35 1 c24 0 31 3 21 9 -11 7 -10 11 5 20 13 7 14 10 5 11 -8 0
-11 3 -8 7 4 3 2 12 -5 20 -6 8 -7 13 -2 12 23 -4 36 2 30 16 -10 28 4 45 34
40 16 -3 32 -1 35 5 3 5 16 10 29 10 13 0 31 9 41 20 10 11 23 20 29 20 6 0 5
-4 -3 -9 -10 -6 -10 -10 -1 -16 6 -4 16 -3 22 3 7 7 19 7 36 1 14 -5 31 -8 38
-5 7 3 20 -2 31 -9 10 -8 23 -14 28 -15 6 0 3 5 -5 10 -9 6 -10 10 -3 10 6 0
15 -5 18 -10 5 -8 11 -7 21 1 11 9 14 8 14 -4 0 -10 6 -14 15 -11 9 4 13 15
11 29 -3 13 1 26 7 29 7 4 0 4 -15 2 -19 -2 -28 1 -28 10 0 8 6 11 16 7 9 -3
20 0 25 8 7 11 9 11 9 -3 0 -21 11 -23 29 -5 10 10 12 9 9 -3 -2 -8 -12 -18
-23 -21 -18 -5 -17 -8 13 -26 37 -23 74 -20 70 5 -2 10 5 17 17 19 19 3 19 3
1 -5 -16 -7 -16 -10 -5 -14 15 -6 62 35 72 62 3 8 6 2 6 -15 1 -16 5 -25 9
-20 4 6 23 10 42 10 21 1 34 6 33 12 -2 8 11 10 37 8 22 -3 40 0 40 5 0 6 -6
10 -14 10 -8 0 -18 4 -21 10 -3 5 4 10 17 9 13 0 34 2 48 6 14 4 20 3 14 -2
-6 -4 -8 -17 -4 -27 6 -19 7 -18 13 3 5 22 7 22 22 7 9 -9 22 -16 28 -16 7 0
6 -4 -3 -10 -11 -8 -9 -9 13 -8 15 1 27 6 27 10 0 4 7 8 15 8 14 0 19 12 16
33 -2 12 6 8 20 -10 12 -14 12 -16 0 -8 -11 6 -13 4 -8 -8 3 -9 1 -18 -6 -21
-9 -3 -9 -5 0 -5 6 -1 15 4 18 9 5 8 11 8 20 0 9 -8 11 -4 9 17 -2 16 -1 22 2
16 4 -10 11 -9 28 2 12 8 26 12 29 8 4 -3 7 1 7 10 0 10 4 17 9 17 5 0 8 -11
5 -24 -4 -25 20 -55 30 -37 4 5 1 13 -5 17 -8 4 -7 9 2 15 12 7 12 9 0 9 -11
0 -11 3 -1 15 14 16 34 10 24 -7 -5 -8 -1 -9 11 -4 14 5 16 4 6 -8 -14 -16 -4
-46 15 -46 8 0 13 -3 13 -7 -3 -19 2 -33 11 -33 6 0 10 10 10 23 1 20 2 20 11
5 13 -24 24 -23 37 5 8 16 11 18 11 6 1 -25 31 -32 47 -12 7 10 14 21 14 24 0
4 17 -9 37 -30 l37 -36 14 38 c13 34 42 52 42 26 0 -5 -4 -8 -9 -4 -17 10 -24
-16 -10 -41 15 -28 33 -32 26 -5 -2 10 0 25 5 32 8 11 9 10 4 -3 -3 -10 -1
-18 4 -18 6 0 10 5 10 10 0 7 8 6 23 -2 12 -6 32 -11 45 -9 12 1 22 -2 22 -8
0 -6 6 -8 14 -5 8 3 17 0 21 -6 4 -7 1 -10 -8 -8 -9 2 -15 -1 -14 -7 1 -5 13
-10 27 -10 15 0 24 -5 23 -12 -2 -7 2 -13 7 -13 6 0 10 -8 10 -18 0 -18 34
-62 48 -62 4 0 8 -12 9 -26 0 -15 7 -30 15 -35 7 -5 14 -13 14 -19 1 -5 2 -11
4 -12 1 -2 3 -13 4 -25 2 -13 10 -31 19 -41 9 -10 17 -30 17 -44 0 -17 7 -27
20 -31 11 -3 20 -12 20 -21 0 -10 -6 -13 -15 -10 -8 4 -15 1 -15 -5 0 -6 5
-11 10 -11 6 0 10 -6 10 -14 0 -9 7 -12 20 -9 14 4 20 0 20 -11 0 -9 -5 -16
-10 -16 -6 0 -8 -11 -4 -25 5 -21 3 -24 -12 -19 -14 5 -16 4 -9 -4 6 -6 21 -9
34 -5 17 4 19 8 9 14 -7 5 -8 9 -3 9 6 0 17 -5 25 -10 11 -7 11 -10 2 -10 -8
0 -10 -5 -6 -12 5 -7 7 -25 6 -40 -2 -28 12 -46 23 -28 9 15 35 -7 29 -25 -3
-7 -1 -16 4 -19 6 -4 7 -20 1 -43 -11 -50 -11 -63 2 -63 5 0 7 5 4 10 -3 6 2
18 11 28 17 16 17 15 11 -14 -3 -19 -1 -36 6 -44 10 -10 8 -12 -6 -7 -15 6
-18 2 -17 -16 4 -50 1 -60 -15 -47 -13 11 -14 10 -9 -4 4 -10 13 -15 21 -12 8
3 19 6 24 6 4 0 6 7 3 15 -4 8 -2 15 3 15 10 0 11 -76 1 -86 -4 -3 -4 -13 0
-22 5 -15 3 -15 -10 -4 -10 8 -19 9 -22 3 -4 -5 3 -12 14 -16 23 -7 25 -16 8
-33 -9 -9 -9 -12 0 -12 7 0 12 -13 12 -31 0 -16 -4 -28 -9 -25 -5 4 -8 -2 -6
-11 2 -10 4 -22 4 -26 1 -5 6 -5 12 -1 8 4 8 0 0 -15 -8 -14 -8 -21 -1 -21 5
0 10 -10 11 -22 0 -13 4 -32 9 -43 6 -14 8 2 7 50 -2 56 2 74 16 88 10 10 23
15 29 11 7 -4 8 -3 4 4 -13 21 5 61 32 71 22 8 23 10 7 10 -11 1 -30 -5 -41
-13 -13 -10 -25 -11 -35 -5 -10 6 -11 9 -1 9 7 0 11 4 8 8 -3 5 -7 42 -11 83
-7 90 -19 146 -56 268 -16 51 -29 106 -29 122 0 16 -4 29 -10 29 -5 0 -10 6
-10 13 0 6 -14 45 -30 86 -17 40 -30 80 -30 88 0 24 -81 155 -119 194 -20 20
-43 44 -53 55 -28 33 -141 138 -197 184 -132 108 -289 200 -401 233 -165 48
-211 58 -300 62 -52 2 -104 2 -115 -1z m-238 -356 c-3 -8 -6 -5 -6 6 -1 11 2
17 5 13 3 -3 4 -12 1 -19z m408 2 c3 0 3 6 -1 13 -5 9 -4 9 6 0 7 -6 19 -9 28
-6 10 4 13 1 10 -8 -6 -19 -57 -14 -77 7 -15 15 -14 15 6 5 12 -6 24 -11 28
-11z m158 0 c-3 -12 -8 -19 -11 -16 -5 6 5 36 12 36 2 0 2 -9 -1 -20z m212 -9
c-3 -6 -14 -11 -23 -11 -15 1 -15 2 2 15 21 16 32 13 21 -4z m55 -18 c0 -3 -7
-3 -15 1 -9 3 -15 0 -15 -10 0 -8 -4 -12 -10 -9 -5 3 -10 0 -10 -7 0 -9 -3 -9
-10 2 -7 11 -3 18 12 26 20 11 48 9 48 -3z m-604 -13 c5 0 10 -7 12 -17 2 -11
0 -14 -5 -7 -4 6 -16 13 -26 17 -10 4 -15 12 -11 18 5 8 9 8 14 -1 4 -6 11
-11 16 -10z m52 -1 c-19 -12 -25 -11 -25 5 0 8 8 11 20 8 14 -4 16 -7 5 -13z
m-183 -10 c8 -25 -9 -48 -18 -25 -4 9 -1 16 5 16 7 0 6 5 -2 15 -8 9 -8 15 -2
15 6 0 14 -9 17 -21z m648 6 c-3 -9 -8 -14 -10 -11 -3 3 -2 9 2 15 9 16 15 13
8 -4z m124 -17 c-3 -8 -6 -5 -6 6 -1 11 2 17 5 13 3 -3 4 -12 1 -19z m-793
-34 c4 -10 1 -14 -6 -12 -15 5 -23 28 -10 28 5 0 13 -7 16 -16z m-159 -14 c-3
-5 -12 -10 -18 -10 -7 0 -6 4 3 10 19 12 23 12 15 0z m-385 -240 c0 -5 -5 -10
-11 -10 -5 0 -7 5 -4 10 3 6 8 10 11 10 2 0 4 -4 4 -10z m1905 -188 c-3 -3
-11 0 -18 7 -9 10 -8 11 6 5 10 -3 15 -9 12 -12z m-1995 -37 c0 -8 -4 -15 -10
-15 -5 0 -7 7 -4 15 4 8 8 15 10 15 2 0 4 -7 4 -15z m2055 -106 c-4 -5 -12 -9
-18 -8 -9 0 -8 2 1 6 6 2 9 10 6 15 -4 7 -2 8 5 4 6 -4 9 -12 6 -17z m-2150 1
c-3 -5 -12 -10 -18 -10 -7 0 -6 4 3 10 19 12 23 12 15 0z m115 -45 c0 -2 -10
-9 -22 -15 -22 -11 -22 -10 -4 4 21 17 26 19 26 11z m-149 -36 c-5 -13 -10
-19 -10 -12 -1 15 10 45 15 40 3 -2 0 -15 -5 -28z m62 -66 c-24 -27 -30 -40
-22 -49 8 -10 6 -12 -12 -9 -12 3 -25 9 -29 14 -3 6 -11 6 -19 2 -10 -6 -10
-10 -2 -16 14 -8 -4 -35 -23 -35 -6 0 -2 7 8 15 11 8 14 15 8 15 -19 0 -14 18
9 31 17 9 23 8 30 -2 5 -8 9 -9 9 -4 0 6 11 22 24 37 14 14 23 28 21 30 -2 2
4 4 14 5 13 1 10 -7 -16 -34z m82 6 c-10 -15 -25 -10 -19 6 4 8 10 12 15 9 5
-3 7 -10 4 -15z m-45 -80 c0 -5 5 -7 12 -3 7 4 8 3 4 -4 -5 -8 -13 -9 -24 -3
-28 15 -55 -12 -50 -49 4 -26 1 -33 -19 -41 -32 -12 -33 -12 -33 7 0 10 5 14
16 10 8 -3 12 -2 9 4 -3 6 -2 10 3 10 14 0 21 60 8 61 -11 1 39 16 62 18 6 0
12 -4 12 -10z m-205 -9 c3 -5 1 -10 -4 -10 -6 0 -11 5 -11 10 0 6 2 10 4 10 3
0 8 -4 11 -10z m125 -20 c0 -5 -5 -10 -11 -10 -5 0 -7 5 -4 10 3 6 8 10 11 10
2 0 4 -4 4 -10z m60 -1 c0 -5 5 -7 12 -3 7 4 8 3 4 -4 -4 -6 -13 -9 -21 -5
-17 6 -20 23 -5 23 6 0 10 -5 10 -11z m-108 -6 c-6 -2 -10 -8 -8 -12 3 -4 -5
-8 -16 -8 -20 -2 -20 -1 -2 12 11 8 24 14 29 14 6 0 4 -3 -3 -6z m12 -81 c3
-5 -1 -9 -9 -9 -8 0 -12 4 -9 9 3 4 7 8 9 8 2 0 6 -4 9 -8z m39 -15 c-3 -13
-11 -24 -18 -24 -10 0 -10 5 2 24 8 13 16 23 18 23 1 0 0 -10 -2 -23z m-43
-57 c0 -5 -2 -10 -4 -10 -3 0 -8 5 -11 10 -3 6 -1 10 4 10 6 0 11 -4 11 -10z
m25 -40 c-3 -5 -11 -10 -16 -10 -6 0 -7 5 -4 10 3 6 11 10 16 10 6 0 7 -4 4
-10z m34 -32 c1 -5 -3 -8 -9 -8 -5 0 -10 12 -9 28 0 24 1 25 9 7 5 -11 9 -23
9 -27z m-105 -52 c-24 -21 -26 -27 -15 -35 12 -8 12 -12 2 -25 -9 -11 -10 -16
-2 -16 6 0 11 -8 11 -17 0 -15 -2 -15 -14 2 -7 10 -11 27 -8 37 3 13 -1 18
-14 18 -16 0 -16 2 3 15 13 9 20 22 16 30 -3 11 -1 13 10 9 8 -3 18 0 22 6 4
6 9 9 12 6 3 -3 -8 -16 -23 -30z m127 3 c-5 -13 -10 -19 -10 -12 -1 15 10 45
15 40 3 -2 0 -15 -5 -28z m-41 -13 c0 -2 -7 -7 -16 -10 -8 -3 -12 -2 -9 4 6
10 25 14 25 6z m33 -31 c-3 -9 -8 -13 -11 -11 -3 3 -11 -2 -18 -12 -12 -15
-12 -15 -7 5 3 12 12 24 22 26 9 3 17 5 18 6 1 0 0 -6 -4 -14z m25 -55 c-11
-18 -28 -27 -28 -16 0 6 30 36 36 36 2 0 -1 -9 -8 -20z m-43 -9 c3 -5 1 -12
-5 -16 -5 -3 -10 1 -10 9 0 18 6 21 15 7z m60 -20 c-3 -6 -15 -11 -25 -11 -10
0 -21 -6 -23 -12 -3 -8 -6 -6 -6 5 -1 12 7 17 24 17 14 0 25 5 25 12 0 6 3 9
6 5 3 -3 3 -10 -1 -16z m-20 -51 c3 -5 1 -10 -4 -10 -6 0 -11 5 -11 10 0 6 2
10 4 10 3 0 8 -4 11 -10z m15 -79 c0 -6 -5 -13 -11 -16 -6 -4 -8 -13 -5 -20 2
-7 -1 -18 -7 -24 -8 -8 -8 -11 2 -11 7 0 9 -4 6 -10 -10 -16 -25 -12 -26 8 0
15 -2 14 -10 -3 -6 -15 -7 -11 -3 15 4 19 10 43 16 53 9 18 38 24 38 8z m-13
-186 c-8 -18 -28 -20 -24 -2 2 13 19 28 25 22 3 -2 2 -11 -1 -20z m-7 -110 c0
-8 -2 -15 -4 -15 -2 0 -6 7 -10 15 -3 8 -1 15 4 15 6 0 10 -7 10 -15z m0 -45
c0 -5 -2 -10 -4 -10 -3 0 -8 5 -11 10 -3 6 -1 10 4 10 6 0 11 -4 11 -10z"/>
<path d="M1470 6680 c0 -5 5 -10 10 -10 6 0 10 5 10 10 0 6 -4 10 -10 10 -5 0
-10 -4 -10 -10z"/>
<path d="M6705 6490 c-3 -5 -1 -10 4 -10 6 0 11 5 11 10 0 6 -2 10 -4 10 -3 0
-8 -4 -11 -10z"/>
<path d="M4081 6466 c-8 -10 -9 -16 -1 -21 5 -3 13 1 16 10 9 22 -1 29 -15 11z"/>
<path d="M4350 6438 c0 -9 5 -20 11 -23 17 -11 18 -2 3 19 -12 17 -14 17 -14
4z"/>
<path d="M4440 6390 c0 -5 5 -10 10 -10 6 0 10 5 10 10 0 6 -4 10 -10 10 -5 0
-10 -4 -10 -10z"/>
<path d="M3277 6373 c-4 -3 -7 -11 -7 -17 0 -6 5 -5 12 2 6 6 9 14 7 17 -3 3
-9 2 -12 -2z"/>
<path d="M3240 6359 c0 -5 5 -7 10 -4 6 3 10 8 10 11 0 2 -4 4 -10 4 -5 0 -10
-5 -10 -11z"/>
<path d="M3088 6343 c6 -2 18 -2 25 0 6 3 1 5 -13 5 -14 0 -19 -2 -12 -5z"/>
<path d="M3120 6316 c0 -8 5 -18 10 -21 6 -3 10 1 10 9 0 8 -4 18 -10 21 -5 3
-10 -1 -10 -9z"/>
<path d="M3165 6219 c-4 -6 -5 -12 -2 -15 2 -3 7 2 10 11 7 17 1 20 -8 4z"/>
<path d="M1018 6163 c7 -3 16 -2 19 1 4 3 -2 6 -13 5 -11 0 -14 -3 -6 -6z"/>
<path d="M3040 6149 c0 -5 5 -7 10 -4 6 3 10 8 10 11 0 2 -4 4 -10 4 -5 0 -10
-5 -10 -11z"/>
<path d="M4880 5865 c-10 -13 -9 -15 11 -14 13 0 18 3 11 6 -6 2 -10 9 -6 14
9 15 -2 10 -16 -6z"/>
<path d="M4875 5810 c3 -5 8 -10 11 -10 2 0 4 5 4 10 0 6 -5 10 -11 10 -5 0
-7 -4 -4 -10z"/>
<path d="M4910 5746 c0 -4 5 -16 10 -27 8 -13 7 -19 0 -19 -6 0 -9 -4 -5 -10
6 -10 35 -3 35 10 0 4 -9 17 -20 30 -11 13 -20 20 -20 16z"/>
<path d="M4577 5682 c-9 -2 -15 -8 -12 -13 4 -5 3 -10 -2 -10 -10 -2 -183 -9
-240 -10 -23 0 -47 -7 -54 -15 -6 -8 -17 -14 -24 -14 -6 0 -11 -10 -9 -22 1
-13 3 -26 3 -30 1 -5 14 -8 30 -8 16 0 31 -6 34 -12 3 -10 7 -10 18 -2 8 6 21
11 29 11 8 0 52 4 98 8 59 5 82 4 82 -4 0 -7 24 -10 73 -9 44 1 57 3 32 5 -42
5 -74 23 -40 23 19 0 19 0 0 14 -11 7 -27 16 -35 19 -8 2 -2 3 14 1 16 -3 38
-12 48 -21 18 -16 18 -16 12 0 -3 9 -2 17 4 17 7 0 6 10 -1 29 -6 17 -14 28
-18 25 -4 -2 -11 2 -16 9 -4 7 -16 11 -26 9z m31 -24 c8 -10 3 -13 -19 -14
-26 -1 -27 0 -11 12 9 7 18 14 18 14 1 0 6 -6 12 -12z m22 -38 c0 -5 -2 -10
-4 -10 -3 0 -8 5 -11 10 -3 6 -1 10 4 10 6 0 11 -4 11 -10z"/>
<path d="M4915 5660 c3 -5 10 -10 16 -10 5 0 9 5 9 10 0 6 -7 10 -16 10 -8 0
-12 -4 -9 -10z"/>
<path d="M3320 5635 c-7 -8 -9 -15 -6 -15 4 0 14 7 22 15 9 8 11 15 6 15 -5 0
-15 -7 -22 -15z"/>
<path d="M3394 5635 c-4 -8 -10 -13 -14 -10 -4 3 -11 -2 -14 -11 -4 -10 -12
-14 -24 -9 -13 5 -14 4 -5 -6 10 -10 8 -16 -6 -28 -18 -16 -35 -50 -33 -63 1
-5 -7 -8 -19 -8 -13 0 -18 4 -13 12 4 7 3 8 -5 4 -8 -6 -9 -12 -2 -20 6 -7 7
-17 3 -22 -4 -4 0 -3 9 4 9 6 18 9 22 6 5 -5 50 33 45 39 -1 1 4 17 10 36 10
27 15 32 24 23 14 -14 32 -16 23 -3 -3 5 0 13 6 16 5 4 8 13 5 21 -3 8 -1 14
4 14 6 0 10 5 10 10 0 16 -20 12 -26 -5z"/>
<path d="M3575 5643 c-11 -3 -26 -10 -32 -15 -7 -6 -19 -8 -27 -5 -8 3 -17 1
-20 -6 -2 -7 -5 -3 -6 8 -1 19 -1 19 -15 1 -8 -11 -20 -16 -30 -12 -9 3 -13 2
-10 -4 3 -5 0 -20 -7 -32 -7 -13 -11 -28 -10 -34 3 -17 -36 -47 -53 -40 -9 3
-14 2 -11 -3 6 -9 -51 -34 -63 -28 -3 2 -20 -11 -38 -30 -37 -37 -32 -42 12
-13 17 11 38 17 51 14 13 -3 31 -1 41 6 15 9 12 10 -17 5 -26 -5 -31 -4 -20 4
8 6 23 11 33 11 9 0 17 5 17 11 0 7 14 8 41 4 29 -5 40 -4 35 4 -6 10 20 16
47 12 4 0 6 4 5 10 -2 6 8 13 22 15 14 2 37 6 52 8 15 3 30 1 33 -4 3 -6 11
-10 16 -10 6 0 7 5 4 10 -4 6 4 5 19 -1 14 -7 23 -16 20 -20 -3 -5 1 -6 8 -4
20 8 98 -53 91 -70 -7 -21 -22 -19 -17 3 5 16 -4 16 -113 10 -137 -8 -181 -16
-161 -30 8 -6 2 -7 -19 -3 -33 7 -80 -11 -118 -45 -11 -10 -30 -21 -42 -24
-12 -4 -25 -16 -28 -27 -4 -10 -13 -19 -20 -19 -9 0 -12 -6 -9 -15 4 -8 1 -15
-5 -15 -6 0 -11 5 -11 11 0 8 -5 8 -15 -1 -17 -14 -20 -40 -4 -40 6 0 7 -5 2
-12 -12 -21 -12 -36 1 -47 12 -10 39 0 36 15 -1 5 4 10 11 13 8 2 9 -1 3 -10
-6 -11 -5 -12 7 -2 15 12 43 12 55 0 4 -4 -1 -10 -10 -13 -14 -5 -15 -9 -4
-15 18 -12 31 -11 23 1 -3 6 -2 10 4 10 5 0 15 -8 20 -17 6 -10 11 -13 11 -6
0 6 -7 18 -15 26 -12 13 -12 17 5 32 10 9 24 14 29 10 6 -3 11 -1 11 4 0 6 5
11 11 11 5 0 7 -5 4 -11 -4 -6 2 -5 14 3 29 18 27 22 -19 42 l-40 18 21 29
c25 36 39 37 39 4 0 -41 33 -65 90 -65 76 0 112 50 80 111 -6 10 -8 19 -5 19
14 0 91 -44 98 -56 4 -8 18 -14 30 -15 16 0 10 -6 -21 -20 -24 -10 -41 -22
-38 -27 3 -5 -9 -7 -27 -5 -18 2 -26 0 -18 -3 8 -4 27 -20 43 -36 15 -16 28
-23 28 -17 0 7 -8 18 -17 26 -17 13 -17 13 2 11 11 -2 23 -7 27 -13 5 -6 8 -5
8 3 0 7 5 10 12 6 8 -5 7 -10 -4 -18 -8 -6 -19 -22 -23 -36 -6 -20 -5 -23 6
-12 7 6 29 12 49 12 19 0 47 7 60 17 14 9 19 10 13 3 -25 -27 -13 -41 12 -16
14 14 25 32 25 41 0 23 18 18 26 -7 4 -13 2 -24 -5 -26 -14 -5 -15 -52 -1 -52
5 0 13 18 16 40 4 22 11 40 16 40 5 0 6 -4 3 -10 -3 -5 -1 -10 6 -10 6 0 9 8
6 19 -3 12 1 22 10 25 8 3 11 11 8 17 -4 6 -13 8 -21 5 -7 -3 -16 0 -20 6 -5
7 -3 8 5 3 17 -10 10 91 -9 125 -7 14 -15 38 -17 54 -4 35 -8 40 -23 31 -8 -5
-6 -13 6 -26 23 -25 3 -24 -26 1 -13 11 -18 20 -11 20 7 0 10 4 7 8 -3 5 -19
7 -35 6 -36 -2 -42 19 -12 36 14 7 21 6 24 -3 3 -7 6 -5 6 6 1 9 -5 17 -13 17
-7 0 -19 7 -27 16 -11 13 -10 15 6 12 10 -1 20 3 22 10 3 7 -3 12 -14 12 -11
0 -24 5 -30 11 -7 7 -39 12 -72 13 -34 1 -61 4 -61 9 0 8 -13 8 -45 0z m175
-124 c0 -4 -7 -9 -15 -13 -8 -3 -15 -1 -15 4 0 5 -7 7 -15 4 -8 -4 -15 -1 -15
5 0 5 13 9 30 8 16 -1 30 -5 30 -8z m-110 -115 c13 -14 12 -14 -15 -4 -16 6
-48 14 -70 17 -64 9 -56 16 10 9 33 -4 67 -14 75 -22z m-215 -10 c-26 -20 -75
-46 -75 -40 0 8 74 56 85 56 5 0 1 -8 -10 -16z m414 -10 c-6 -7 -9 -21 -5 -29
8 -21 -21 -19 -32 2 -7 12 -4 21 12 34 24 19 43 15 25 -7z m-41 -39 c15 -14
32 -25 39 -25 7 0 13 -6 13 -12 0 -22 -14 -35 -32 -32 -12 1 -18 -5 -19 -19 0
-21 -1 -21 -9 -2 -13 29 -12 35 6 35 12 0 9 8 -13 33 -16 19 -34 32 -42 29 -9
-4 -12 -1 -7 6 11 19 35 14 64 -13z m-268 1 c0 -3 -4 -8 -10 -11 -5 -3 -10 -1
-10 4 0 6 5 11 10 11 6 0 10 -2 10 -4z m50 -21 c0 -8 -4 -15 -10 -15 -5 0 -10
7 -10 15 0 8 5 15 10 15 6 0 10 -7 10 -15z m-80 -11 c0 -8 -5 -12 -10 -9 -6 4
-8 11 -5 16 9 14 15 11 15 -7z m267 -10 c-3 -3 -12 -4 -19 -1 -8 3 -5 6 6 6
11 1 17 -2 13 -5z m-24 -54 c-3 -12 -8 -19 -11 -16 -5 6 5 36 12 36 2 0 2 -9
-1 -20z m80 -5 c-3 -9 -8 -14 -10 -11 -3 3 -2 9 2 15 9 16 15 13 8 -4z m72 5
c3 -5 1 -10 -4 -10 -6 0 -11 5 -11 10 0 6 2 10 4 10 3 0 8 -4 11 -10z"/>
<path d="M4648 5633 c5 -10 7 -24 4 -32 -3 -10 0 -12 12 -8 10 4 16 1 16 -7 0
-7 8 -20 18 -27 15 -13 16 -12 3 4 -10 13 -11 17 -1 17 7 0 1 11 -14 25 -14
13 -26 29 -26 35 0 5 -5 10 -10 10 -7 0 -7 -6 -2 -17z"/>
<path d="M4930 5636 c0 -9 30 -14 35 -6 4 6 -3 10 -14 10 -12 0 -21 -2 -21 -4z"/>
<path d="M4715 5606 c10 -14 19 -26 22 -26 7 0 -17 39 -28 46 -6 3 -3 -5 6
-20z"/>
<path d="M3280 5609 c0 -5 5 -7 10 -4 6 3 10 8 10 11 0 2 -4 4 -10 4 -5 0 -10
-5 -10 -11z"/>
<path d="M4180 5591 c0 -16 28 -33 35 -21 3 5 1 10 -5 10 -6 0 -8 5 -5 10 3 6
-1 10 -9 10 -9 0 -16 -4 -16 -9z"/>
<path d="M4730 5556 c0 -2 9 -6 20 -9 11 -3 18 -1 14 4 -5 9 -34 13 -34 5z"/>
<path d="M4786 5552 c-3 -5 1 -9 9 -9 8 0 12 4 9 9 -3 4 -7 8 -9 8 -2 0 -6 -4
-9 -8z"/>
<path d="M4265 5541 c-3 -5 3 -12 12 -14 11 -3 7 -5 -10 -6 -81 -3 -136 -84
-106 -156 7 -17 14 -34 14 -40 1 -5 7 -23 13 -38 7 -16 12 -35 12 -43 0 -8 7
-14 16 -14 11 0 15 -6 11 -20 -3 -11 -1 -18 4 -14 5 3 9 13 9 23 0 9 5 22 12
29 9 9 7 12 -9 12 -25 0 -39 16 -49 54 -5 19 -2 31 7 37 10 6 11 9 2 9 -7 0
-13 7 -13 15 0 8 -4 15 -9 15 -6 0 -6 12 1 31 6 16 13 28 16 25 3 -3 10 1 16
8 7 9 18 11 31 6 l20 -9 -20 -1 c-11 0 -29 -8 -40 -16 l-20 -16 20 2 c11 1 25
1 30 0 6 -1 17 -3 25 -4 20 -1 14 -35 -12 -62 -19 -21 -11 -43 11 -29 5 3 13
-4 16 -16 6 -17 13 -20 41 -17 19 2 34 0 34 -5 0 -4 4 -5 10 -2 5 3 37 1 71
-5 42 -8 64 -8 73 -1 9 7 16 7 25 -2 11 -9 13 -9 9 2 -3 10 -26 14 -82 16 -80
3 -101 10 -76 25 13 8 12 10 0 14 -8 2 -24 7 -35 12 -11 4 -29 6 -40 6 -18 -2
-18 -1 2 8 12 5 29 20 39 34 21 33 33 33 27 2 -6 -31 23 -75 51 -76 11 -1 39
-2 61 -3 34 -2 42 2 53 23 8 14 14 40 14 58 0 29 3 32 22 26 45 -13 75 -74 37
-74 -11 0 -23 -5 -27 -12 -4 -7 -3 -8 4 -4 7 4 12 2 12 -3 0 -6 -14 -11 -30
-11 -28 0 -29 -2 -18 -20 15 -24 28 -26 28 -4 0 10 6 14 15 10 8 -3 15 0 15 6
0 7 6 6 16 -3 13 -10 17 -10 25 2 8 12 10 12 19 -1 5 -8 10 -10 10 -5 0 6 7 1
15 -9 8 -11 25 -20 38 -22 20 -2 22 2 22 34 -1 41 -39 112 -61 112 -8 0 -14 3
-14 8 0 30 -236 82 -315 69 -39 -6 -65 -1 -65 15 0 5 5 6 10 3 17 -11 11 7 -7
21 -21 16 -30 17 -38 5z m200 -69 c-16 -2 -44 -10 -62 -18 -39 -18 -54 -18
-28 0 31 20 78 33 100 27 16 -5 14 -6 -10 -9z m144 -23 c17 -6 31 -15 31 -20
0 -5 -15 -2 -32 7 -53 27 -53 32 1 13z m-145 -54 c-4 -8 -7 -15 -9 -15 -2 0
-5 7 -9 15 -3 9 0 15 9 15 9 0 12 -6 9 -15z m49 -15 c-3 -11 -7 -20 -9 -20 -2
0 -4 9 -4 20 0 11 4 20 9 20 5 0 7 -9 4 -20z"/>
<path d="M4634 5528 c-3 -4 6 -8 20 -8 14 0 26 4 26 9 0 11 -39 10 -46 -1z"/>
<path d="M4966 5525 c-6 -17 5 -26 21 -17 8 5 7 11 -2 19 -10 10 -14 9 -19 -2z"/>
<path d="M4700 5520 c0 -5 8 -10 18 -10 9 0 28 -3 42 -5 16 -3 12 0 -10 9 -43
18 -50 19 -50 6z"/>
<path d="M3214 5454 c-18 -14 -18 -14 6 -3 31 14 36 19 24 19 -6 0 -19 -7 -30
-16z"/>
<path d="M4805 5450 c-3 -6 1 -7 9 -4 18 7 21 14 7 14 -6 0 -13 -4 -16 -10z"/>
<path d="M3128 5413 c6 -2 18 -2 25 0 6 3 1 5 -13 5 -14 0 -19 -2 -12 -5z"/>
<path d="M3248 5393 c7 -3 16 -2 19 1 4 3 -2 6 -13 5 -11 0 -14 -3 -6 -6z"/>
<path d="M5141 5330 c-12 -22 -20 -46 -18 -53 3 -6 6 -3 7 8 1 12 6 4 14 -20
7 -22 18 -39 24 -38 11 3 10 -37 -3 -76 -3 -11 1 -33 9 -48 13 -26 14 -20 14
92 0 125 -5 175 -17 175 -4 0 -17 -18 -30 -40z"/>
<path d="M3203 5353 c9 -2 23 -2 30 0 6 3 -1 5 -18 5 -16 0 -22 -2 -12 -5z"/>
<path d="M4770 5329 c0 -5 5 -7 10 -4 6 3 10 8 10 11 0 2 -4 4 -10 4 -5 0 -10
-5 -10 -11z"/>
<path d="M2505 5271 c-3 -6 8 -8 26 -6 43 6 50 15 11 15 -17 0 -33 -4 -37 -9z"/>
<path d="M4677 5269 c7 -7 15 -10 18 -7 3 3 -2 9 -12 12 -14 6 -15 5 -6 -5z"/>
<path d="M4329 5257 c6 -8 7 -18 3 -22 -4 -5 -2 -5 5 -1 14 8 6 36 -9 36 -7 0
-6 -5 1 -13z"/>
<path d="M4378 5252 c-25 -5 -22 -19 4 -25 26 -7 27 -7 19 13 -3 9 -14 14 -23
12z"/>
<path d="M3050 5240 c0 -5 7 -10 16 -10 8 0 12 5 9 10 -3 6 -10 10 -16 10 -5
0 -9 -4 -9 -10z"/>
<path d="M3450 5234 c-10 -12 -11 -15 -2 -10 7 4 19 2 27 -4 8 -6 19 -9 25 -5
14 9 1 28 -15 21 -8 -3 -15 0 -17 6 -2 5 -10 2 -18 -8z"/>
<path d="M2466 5225 c-9 -26 -7 -32 5 -12 6 10 9 21 6 23 -2 3 -7 -2 -11 -11z"/>
<path d="M3530 5231 c0 -6 5 -13 10 -16 6 -3 10 1 10 9 0 9 -4 16 -10 16 -5 0
-10 -4 -10 -9z"/>
<path d="M3575 5230 c3 -5 12 -7 20 -3 21 7 19 13 -6 13 -11 0 -18 -4 -14 -10z"/>
<path d="M3938 5234 c-8 -14 7 -61 15 -47 4 6 3 21 -1 34 -5 12 -11 18 -14 13z"/>
<path d="M4250 5221 c0 -14 29 -21 36 -9 4 7 3 8 -4 4 -7 -4 -12 -2 -12 3 0 6
-4 11 -10 11 -5 0 -10 -4 -10 -9z"/>
<path d="M4360 5212 c0 -4 10 -9 22 -9 18 -2 20 0 8 7 -18 12 -30 13 -30 2z"/>
<path d="M2479 5168 c-2 -13 -2 -43 2 -68 l5 -45 9 43 c4 23 11 42 16 42 5 0
9 -4 9 -10 0 -5 8 -10 18 -10 14 0 15 -2 2 -10 -12 -7 -12 -10 -1 -10 8 0 11
-6 7 -17 -4 -9 -4 -43 0 -76 5 -45 9 -55 16 -42 6 9 7 31 4 48 -5 24 7 85 21
106 1 2 11 -2 20 -9 10 -7 -3 8 -29 34 -53 52 -93 62 -99 24z"/>
<path d="M3990 5180 c0 -5 5 -10 10 -10 6 0 10 5 10 10 0 6 -4 10 -10 10 -5 0
-10 -4 -10 -10z"/>
<path d="M2452 5160 c0 -14 2 -19 5 -12 2 6 2 18 0 25 -3 6 -5 1 -5 -13z"/>
<path d="M5067 5173 c-4 -3 -7 -13 -7 -22 1 -13 3 -13 11 2 11 19 8 33 -4 20z"/>
<path d="M5042 5150 c0 -14 2 -19 5 -12 2 6 2 18 0 25 -3 6 -5 1 -5 -13z"/>
<path d="M3380 5146 c0 -9 7 -12 21 -9 16 4 17 8 7 14 -19 13 -28 11 -28 -5z"/>
<path d="M3958 5130 c2 -16 9 -30 14 -30 5 0 6 5 3 10 -3 6 -1 10 4 10 7 0 7
7 -1 20 -18 28 -25 25 -20 -10z"/>
<path d="M4166 5141 c-19 -7 -19 -8 2 -13 15 -4 22 -2 22 8 0 8 -1 14 -2 13
-2 0 -12 -4 -22 -8z"/>
<path d="M3525 5130 c-16 -7 -17 -9 -3 -9 9 -1 20 4 23 9 7 11 7 11 -20 0z"/>
<path d="M400 5120 c0 -5 5 -10 10 -10 6 0 10 5 10 10 0 6 -4 10 -10 10 -5 0
-10 -4 -10 -10z"/>
<path d="M4074 5111 c0 -11 5 -17 13 -14 10 4 11 9 2 19 -15 18 -15 18 -15 -5z"/>
<path d="M5040 5077 c0 -53 6 -59 20 -21 8 19 6 31 -5 47 -14 20 -15 19 -15
-26z"/>
<path d="M3388 5093 c7 -3 16 -2 19 1 4 3 -2 6 -13 5 -11 0 -14 -3 -6 -6z"/>
<path d="M4201 5084 c0 -11 3 -14 6 -6 3 7 2 16 -1 19 -3 4 -6 -2 -5 -13z"/>
<path d="M3985 5062 c-22 -3 -53 -42 -34 -42 5 0 7 -5 3 -12 -5 -7 -3 -8 5 -4
7 5 10 14 7 22 -3 9 1 14 14 14 10 0 22 5 25 11 9 13 5 16 -20 11z"/>
<path d="M2641 5029 c-1 -35 10 -49 40 -49 17 0 9 18 -10 23 -12 3 -21 16 -24
33 -3 26 -4 25 -6 -7z"/>
<path d="M4068 5053 c7 -3 16 -2 19 1 4 3 -2 6 -13 5 -11 0 -14 -3 -6 -6z"/>
<path d="M2720 5021 c0 -6 4 -13 10 -16 6 -3 7 1 4 9 -7 18 -14 21 -14 7z"/>
<path d="M3883 4989 c-3 -18 -14 -34 -24 -36 -9 -3 -20 -16 -23 -29 -4 -14
-15 -33 -25 -43 -13 -13 -18 -31 -17 -58 2 -21 3 -50 4 -64 1 -14 13 -38 27
-53 13 -14 25 -29 25 -31 0 -3 0 -12 0 -20 0 -9 6 -12 15 -9 8 4 15 1 15 -5 0
-6 -5 -11 -11 -11 -5 0 -7 -4 -4 -10 3 -5 2 -10 -4 -10 -5 0 -12 6 -14 13 -3
6 -6 0 -6 -15 -1 -33 18 -47 34 -25 16 22 24 21 18 -2 -3 -10 0 -22 6 -25 6
-4 11 -4 12 1 0 4 2 21 4 36 3 24 1 27 -16 22 -11 -4 -19 -2 -19 5 0 7 13 10
33 8 27 -2 33 1 35 19 3 17 14 26 45 35 38 11 39 12 15 16 -34 4 -46 30 -13
28 13 0 21 -4 18 -8 -2 -5 6 -8 19 -9 13 -1 39 -3 58 -4 21 -2 39 2 45 10 6 7
22 15 35 17 31 4 39 28 8 28 -27 0 -43 -10 -50 -29 -3 -12 -8 -11 -24 5 -22
21 -30 23 -117 31 -46 4 -62 2 -77 -12 -11 -10 -17 -22 -14 -26 9 -15 -40 -10
-64 7 -16 11 -22 25 -22 52 1 42 23 91 34 74 4 -6 13 -9 21 -6 8 4 12 10 9 15
-3 5 2 9 10 9 9 0 16 -6 16 -12 1 -7 7 -2 15 12 10 19 10 27 2 32 -8 5 -8 11
-2 16 13 9 16 42 4 42 -5 0 -9 -5 -9 -11 0 -5 -5 -7 -10 -4 -6 4 -8 11 -5 16
11 17 14 49 4 49 -5 0 -12 -14 -16 -31z m2 -89 c3 -5 1 -10 -4 -10 -6 0 -11 5
-11 10 0 6 2 10 4 10 3 0 8 -4 11 -10z m65 -209 c0 -5 -7 -11 -15 -15 -15 -5
-20 5 -8 17 9 10 23 9 23 -2z m-50 -29 c0 -15 -2 -15 -10 -2 -13 20 -13 33 0
25 6 -3 10 -14 10 -23z"/>
<path d="M3820 5000 c-12 -8 -10 -10 8 -10 13 0 20 4 17 10 -7 12 -6 12 -25 0z"/>
<path d="M5038 4987 c-2 -12 -1 -35 3 -52 7 -31 10 -20 13 36 1 37 -10 48 -16
16z"/>
<path d="M4284 4971 c11 -11 25 -21 33 -21 7 0 13 -4 13 -10 0 -5 5 -10 10
-10 6 0 10 7 10 15 0 9 -9 15 -25 15 -14 0 -24 5 -22 12 1 6 -7 14 -18 16 -20
4 -20 4 -1 -17z"/>
<path d="M3970 4971 c0 -6 5 -13 10 -16 6 -3 10 1 10 9 0 9 -4 16 -10 16 -5 0
-10 -4 -10 -9z"/>
<path d="M4000 4971 c0 -6 4 -13 10 -16 6 -3 7 1 4 9 -7 18 -14 21 -14 7z"/>
<path d="M2680 4951 c0 -11 -7 -26 -15 -35 -15 -15 -20 -36 -9 -36 14 0 64 35
64 45 -1 12 -25 45 -34 45 -3 0 -6 -9 -6 -19z"/>
<path d="M5110 4945 c0 -17 -6 -39 -14 -50 -18 -27 -30 -95 -16 -95 10 0 13 9
13 43 0 13 8 17 33 17 32 0 34 2 34 33 -1 27 -30 88 -30 61 0 -5 -5 -2 -10 6
-7 12 -10 8 -10 -15z"/>
<path d="M4040 4940 c0 -11 4 -20 9 -20 5 0 11 9 14 20 3 13 0 20 -9 20 -8 0
-14 -9 -14 -20z"/>
<path d="M3978 4933 c6 -2 18 -2 25 0 6 3 1 5 -13 5 -14 0 -19 -2 -12 -5z"/>
<path d="M3980 4899 c-13 -9 -13 -10 1 -6 9 3 22 0 28 -6 9 -9 11 -8 6 6 -8
20 -14 21 -35 6z"/>
<path d="M2890 4835 c0 -23 -3 -27 -10 -15 -5 8 -10 10 -10 4 0 -6 7 -17 15
-24 12 -10 15 -7 21 15 4 15 2 31 -5 38 -8 8 -11 3 -11 -18z"/>
<path d="M4447 4836 c-4 -10 0 -12 14 -9 22 6 26 23 5 23 -8 0 -16 -6 -19 -14z"/>
<path d="M2626 4818 c3 -4 -2 -8 -11 -8 -9 0 -13 -5 -10 -10 3 -6 -1 -17 -9
-26 -13 -12 -16 -49 -5 -61 1 -2 2 -9 3 -15 1 -8 16 -13 38 -13 26 -1 44 -8
58 -23 32 -34 49 -29 40 12 -4 18 -10 39 -14 45 -10 15 -36 14 -36 -1 0 -8 -6
-6 -17 5 -12 12 -16 30 -14 60 2 34 -1 44 -13 44 -8 0 -13 -4 -10 -9z"/>
<path d="M4262 4778 c-29 -22 -38 -34 -29 -40 7 -5 2 -8 -15 -8 -29 0 -69 -31
-49 -38 6 -2 19 2 28 10 10 8 14 8 10 1 -4 -6 -3 -14 3 -18 5 -3 10 -1 10 4 0
6 5 11 10 11 6 0 10 -7 10 -15 0 -13 -31 -21 -62 -16 -5 0 -8 -4 -8 -10 0 -6
9 -9 20 -6 10 3 21 0 24 -7 3 -7 5 -7 5 2 1 6 8 12 16 12 7 0 19 8 24 18 8 14
10 11 7 -15 -2 -18 0 -33 4 -33 4 0 7 -12 6 -27 -1 -15 5 -28 14 -30 13 -4 13
-3 0 6 -11 8 -12 11 -2 11 9 0 11 7 7 20 -7 22 20 29 28 8 4 -9 6 -8 6 3 1 8
-4 20 -9 25 -8 8 -6 15 5 24 8 7 15 23 15 37 0 13 7 26 15 29 17 7 21 34 4 34
-5 0 -7 -4 -4 -10 3 -5 2 -10 -4 -10 -18 0 -23 20 -7 26 9 3 16 10 16 16 0 5
-4 6 -10 3 -5 -3 -10 -1 -10 4 0 21 -37 11 -78 -21z m61 -78 c-3 -11 -9 -20
-14 -20 -10 0 -12 24 -2 33 13 13 21 7 16 -13z m-28 -30 c3 -5 1 -10 -4 -10
-6 0 -11 5 -11 10 0 6 2 10 4 10 3 0 8 -4 11 -10z m5 -24 c0 -3 -4 -8 -10 -11
-5 -3 -10 -1 -10 4 0 6 5 11 10 11 6 0 10 -2 10 -4z"/>
<path d="M2867 4764 c3 -8 9 -12 13 -9 5 3 16 -3 26 -12 17 -17 18 -17 11 0
-4 10 -7 22 -7 25 0 4 -11 8 -24 8 -17 1 -23 -2 -19 -12z"/>
<path d="M5161 4734 c0 -11 3 -14 6 -6 3 7 2 16 -1 19 -3 4 -6 -2 -5 -13z"/>
<path d="M2516 4727 c3 -10 9 -15 12 -12 3 3 0 11 -7 18 -10 9 -11 8 -5 -6z"/>
<path d="M2880 4725 c0 -8 2 -15 4 -15 2 0 6 7 10 15 3 8 1 15 -4 15 -6 0 -10
-7 -10 -15z"/>
<path d="M2901 4680 l1 -45 10 34 c6 23 6 37 -1 44 -8 8 -11 -2 -10 -33z"/>
<path d="M2961 4680 c-1 -15 -6 -31 -13 -38 -9 -9 -9 -12 0 -12 13 0 26 43 19
62 -3 7 -6 2 -6 -12z"/>
<path d="M4040 4672 c0 -10 33 -42 43 -42 4 0 7 5 7 10 0 6 -7 10 -15 10 -8 0
-15 7 -15 15 0 8 -4 15 -10 15 -5 0 -10 -4 -10 -8z"/>
<path d="M3960 4643 c0 -16 2 -16 11 -3 8 11 12 12 16 2 2 -6 9 -10 14 -6 14
8 0 24 -22 24 -11 0 -19 -7 -19 -17z"/>
<path d="M2550 4641 c0 -5 7 -22 15 -37 8 -16 15 -23 15 -16 0 17 45 -16 59
-43 9 -19 10 -18 10 5 0 18 -13 35 -50 63 -27 20 -49 33 -49 28z"/>
<path d="M3010 4634 c0 -8 5 -12 10 -9 6 4 8 11 5 16 -9 14 -15 11 -15 -7z"/>
<path d="M4150 4643 c0 -15 18 -35 23 -27 3 5 -1 15 -9 22 -8 7 -14 9 -14 5z"/>
<path d="M4341 4634 c0 -11 3 -14 6 -6 3 7 2 16 -1 19 -3 4 -6 -2 -5 -13z"/>
<path d="M4380 4632 c0 -12 4 -22 9 -22 10 0 9 26 -2 36 -4 4 -7 -2 -7 -14z"/>
<path d="M4085 4620 c-3 -5 -2 -10 4 -10 5 0 13 5 16 10 3 6 2 10 -4 10 -5 0
-13 -4 -16 -10z"/>
<path d="M2958 4585 c2 -14 6 -25 8 -25 2 0 4 11 4 25 0 14 -4 25 -9 25 -4 0
-6 -11 -3 -25z"/>
<path d="M3280 4600 c0 -5 5 -10 10 -10 6 0 10 5 10 10 0 6 -4 10 -10 10 -5 0
-10 -4 -10 -10z"/>
<path d="M3774 4592 c2 -9 6 -16 9 -14 4 1 16 2 27 2 14 0 18 5 13 17 -4 11
-8 12 -11 5 -2 -8 -9 -9 -22 -2 -15 8 -18 6 -16 -8z"/>
<path d="M7672 4590 c0 -14 2 -19 5 -12 2 6 2 18 0 25 -3 6 -5 1 -5 -13z"/>
<path d="M4330 4583 c0 -13 5 -23 10 -23 13 0 13 11 0 30 -8 12 -10 11 -10 -7z"/>
<path d="M4380 4574 c0 -14 4 -23 10 -19 6 4 8 11 5 16 -4 5 -1 9 5 9 6 0 8 5
5 10 -11 19 -25 10 -25 -16z"/>
<path d="M2925 4580 c3 -5 8 -10 11 -10 2 0 4 5 4 10 0 6 -5 10 -11 10 -5 0
-7 -4 -4 -10z"/>
<path d="M2830 4562 c0 -10 3 -22 8 -26 4 -4 15 -26 24 -49 9 -23 17 -34 17
-24 1 9 5 17 10 17 20 0 6 41 -16 46 -20 5 -28 21 -24 47 0 4 -3 7 -9 7 -5 0
-10 -8 -10 -18z"/>
<path d="M3210 4573 c1 -18 18 -35 24 -24 4 6 2 11 -4 11 -6 0 -8 5 -5 10 3 6
1 10 -4 10 -6 0 -11 -3 -11 -7z"/>
<path d="M3748 4568 c9 -11 10 -18 2 -23 -5 -3 -10 -9 -10 -13 0 -12 64 -32
73 -23 10 10 -11 58 -26 58 -7 0 -21 4 -32 9 -17 7 -18 6 -7 -8z m52 -24 c0
-2 -7 -4 -15 -4 -8 0 -15 4 -15 10 0 5 7 7 15 4 8 -4 15 -8 15 -10z m10 -24
c0 -5 -4 -10 -10 -10 -5 0 -10 5 -10 10 0 6 5 10 10 10 6 0 10 -4 10 -10z"/>
<path d="M2980 4545 c0 -9 6 -12 15 -9 8 4 15 7 15 9 0 2 -7 5 -15 9 -9 3 -15
0 -15 -9z"/>
<path d="M3820 4550 c0 -5 5 -10 10 -10 6 0 10 5 10 10 0 6 -4 10 -10 10 -5 0
-10 -4 -10 -10z"/>
<path d="M5040 4540 c0 -5 12 -10 28 -9 24 0 25 1 7 9 -27 12 -35 12 -35 0z"/>
<path d="M4135 4530 c-3 -5 -1 -10 4 -10 6 0 11 5 11 10 0 6 -2 10 -4 10 -3 0
-8 -4 -11 -10z"/>
<path d="M2910 4519 c0 -5 5 -7 10 -4 6 3 10 8 10 11 0 2 -4 4 -10 4 -5 0 -10
-5 -10 -11z"/>
<path d="M3637 4491 c-4 -17 -3 -21 5 -13 5 5 8 16 6 23 -3 8 -7 3 -11 -10z"/>
<path d="M4488 4503 c7 -3 16 -2 19 1 4 3 -2 6 -13 5 -11 0 -14 -3 -6 -6z"/>
<path d="M2910 4496 c0 -2 7 -6 15 -10 8 -3 15 -1 15 4 0 6 -7 10 -15 10 -8 0
-15 -2 -15 -4z"/>
<path d="M3282 4480 c0 -14 2 -19 5 -12 2 6 2 18 0 25 -3 6 -5 1 -5 -13z"/>
<path d="M3690 4486 c0 -9 5 -16 10 -16 6 0 10 4 10 9 0 6 -4 13 -10 16 -5 3
-10 -1 -10 -9z"/>
<path d="M2964 4465 c1 -29 4 -30 29 -10 18 13 18 14 -2 24 -27 15 -29 14 -27
-14z"/>
<path d="M4315 4460 c-3 -5 -1 -10 4 -10 6 0 11 5 11 10 0 6 -2 10 -4 10 -3 0
-8 -4 -11 -10z"/>
<path d="M4165 4439 c-7 -19 -7 -20 -21 -2 -12 17 -13 17 -14 1 0 -10 -4 -18
-10 -18 -5 0 -7 7 -4 15 8 19 0 19 -20 -1 -10 -10 -16 -11 -16 -4 0 7 -7 9
-17 5 -10 -3 -43 -9 -73 -11 -44 -5 -57 -2 -67 12 -7 10 -16 15 -19 11 -4 -4
-1 -14 6 -22 12 -14 10 -14 -15 -5 -15 6 -30 8 -33 5 -3 -3 0 -5 6 -5 7 0 12
-7 12 -15 0 -20 -30 -7 -31 14 0 9 -2 11 -5 6 -2 -6 -20 -10 -40 -9 -22 1 -37
-3 -41 -11 -2 -8 -11 -11 -18 -9 -7 3 -16 1 -20 -5 -3 -6 -17 -11 -31 -11 -13
0 -24 -6 -24 -12 0 -9 -2 -10 -8 -2 -5 8 -14 9 -32 1 -14 -6 -36 -11 -50 -11
-19 -1 -25 -8 -31 -33 -7 -36 6 -46 16 -12 7 20 7 19 29 -5 12 -14 27 -26 33
-26 6 0 21 -16 34 -35 13 -19 27 -35 31 -35 4 0 24 -16 45 -36 51 -49 73 -60
84 -43 7 11 9 10 9 -4 0 -10 5 -15 10 -12 6 3 10 0 11 -7 0 -7 6 5 14 27 9 28
13 33 14 18 1 -13 6 -23 12 -23 7 0 8 11 4 30 -4 18 -3 30 4 30 6 0 7 -8 4
-17 -5 -12 -2 -15 10 -10 9 3 19 1 23 -4 3 -6 20 -8 38 -6 17 3 40 2 51 -2 19
-8 19 -8 0 -19 -11 -6 -16 -12 -11 -12 5 0 18 8 29 18 15 12 21 14 24 5 3 -7
9 -13 14 -13 6 0 8 4 5 9 -7 11 27 21 72 21 19 0 32 -5 32 -12 0 -9 3 -9 8 -2
10 15 42 27 80 30 28 2 31 0 21 -12 -9 -11 -8 -14 5 -14 10 0 15 4 12 8 -2 4
-2 12 2 17 12 16 69 45 76 38 3 -3 6 0 6 7 0 7 3 10 7 7 3 -4 -2 -16 -11 -26
-24 -26 -17 -50 7 -27 14 14 17 15 17 3 0 -8 -9 -17 -20 -20 -24 -6 -27 -27
-4 -27 22 0 104 91 104 115 0 11 9 31 20 45 l20 25 24 -30 24 -30 -8 43 c-6
33 -17 51 -46 75 -46 39 -100 68 -108 60 -3 -4 -6 -1 -6 5 0 7 -7 12 -16 12
-9 0 -14 -6 -11 -14 4 -9 -4 -13 -24 -14 -16 0 -29 3 -29 7 0 4 -23 8 -52 10
-28 1 -56 4 -60 7 -5 3 -19 7 -32 10 -18 3 -26 -1 -31 -17z m163 -43 c24 5 32
2 41 -14 6 -12 11 -30 11 -42 0 -12 5 -18 10 -15 14 9 12 -26 -2 -58 -15 -30
-26 -33 -54 -13 -17 13 -21 12 -38 -2 -15 -14 -20 -14 -24 -4 -3 9 -8 6 -16
-10 -6 -12 -20 -23 -31 -23 -12 0 -22 -9 -25 -20 -6 -21 -23 -24 -135 -28 -41
-2 -50 1 -53 16 -3 16 0 18 20 12 22 -6 22 -6 4 10 -11 8 -28 12 -38 9 -23 -7
-48 12 -48 37 0 28 -12 22 -45 -23 -34 -46 -56 -60 -48 -30 2 11 -1 23 -8 27
-8 5 -10 4 -5 -3 4 -7 1 -12 -9 -12 -8 0 -20 12 -25 26 -6 15 -15 22 -21 18
-6 -3 -15 0 -20 7 -14 22 -10 33 7 18 13 -10 17 -10 24 0 5 9 10 10 14 2 13
-20 23 -12 18 14 -2 14 -8 22 -13 19 -5 -3 -9 3 -9 13 0 30 40 46 123 49 43 2
85 7 95 12 31 16 172 12 198 -5 15 -9 24 -11 24 -4 0 6 6 10 13 9 6 -2 11 3 9
11 -2 11 0 12 11 3 8 -7 27 -10 45 -6z m116 -154 c3 -5 -1 -9 -9 -9 -8 0 -15
4 -15 9 0 4 4 8 9 8 6 0 12 -4 15 -8z m-117 -18 c4 -12 -46 -38 -55 -29 -3 2
3 14 13 25 19 21 36 22 42 4z m-338 -41 c1 -1 0 -6 -4 -12 -4 -7 -15 -5 -33 6
-26 17 -27 17 -13 -2 14 -19 14 -19 -5 -2 -16 15 -17 19 -5 26 9 6 23 5 35 -2
12 -7 23 -13 25 -14z m256 7 c-27 -12 -35 -12 -35 0 0 6 12 10 28 9 24 0 25
-1 7 -9z"/>
<path d="M3992 4325 c-6 -11 -12 -15 -12 -8 0 7 -14 11 -35 10 -37 -2 -42 -6
-23 -25 9 -9 14 -7 24 6 11 16 14 16 33 -2 18 -17 21 -17 27 -3 10 27 -1 44
-14 22z"/>
<path d="M4122 4265 c0 -16 2 -22 5 -12 2 9 2 23 0 30 -3 6 -5 -1 -5 -18z"/>
<path d="M3050 4440 c0 -5 5 -10 11 -10 5 0 7 5 4 10 -3 6 -8 10 -11 10 -2 0
-4 -4 -4 -10z"/>
<path d="M3295 4440 c3 -5 8 -10 11 -10 2 0 4 5 4 10 0 6 -5 10 -11 10 -5 0
-7 -4 -4 -10z"/>
<path d="M2874 4424 c3 -9 6 -27 6 -41 0 -18 4 -24 14 -20 8 3 17 1 20 -6 4
-7 3 1 0 18 -3 16 -10 33 -16 36 -6 4 -3 11 8 18 17 9 16 10 -10 11 -22 0 -27
-4 -22 -16z"/>
<path d="M2930 4415 c0 -8 4 -15 10 -15 5 0 7 7 4 15 -4 8 -8 15 -10 15 -2 0
-4 -7 -4 -15z"/>
<path d="M3298 4413 c7 -3 16 -2 19 1 4 3 -2 6 -13 5 -11 0 -14 -3 -6 -6z"/>
<path d="M2744 4395 c24 -18 52 -18 91 0 23 10 25 13 10 13 -11 1 -29 -3 -40
-7 -11 -5 -33 -4 -50 0 -28 8 -29 7 -11 -6z"/>
<path d="M3297 4384 c-6 -10 9 -42 16 -34 3 3 1 14 -3 24 -3 11 -9 15 -13 10z"/>
<path d="M2943 4361 c-7 -11 -23 -21 -35 -24 -16 -3 -12 -5 12 -6 24 -1 31 -4
21 -10 -11 -7 -10 -11 7 -20 25 -14 43 -14 22 -1 -10 6 -11 10 -2 10 6 0 12 5
12 11 0 5 -5 7 -12 3 -7 -5 -9 -2 -6 7 3 8 2 22 -1 31 -6 17 -7 17 -18 -1z"/>
<path d="M2900 4310 c0 -5 8 -18 18 -28 9 -9 16 -25 14 -35 -2 -10 3 -17 12
-17 9 0 16 -8 17 -17 0 -13 2 -14 6 -4 3 8 -2 20 -13 28 -17 13 -17 14 2 28
16 12 16 14 2 9 -13 -4 -21 1 -28 20 -9 25 -30 36 -30 16z"/>
<path d="M3345 4310 c-3 -5 -1 -10 4 -10 6 0 11 5 11 10 0 6 -2 10 -4 10 -3 0
-8 -4 -11 -10z"/>
<path d="M3005 4280 c-3 -5 -1 -10 4 -10 6 0 11 5 11 10 0 6 -2 10 -4 10 -3 0
-8 -4 -11 -10z"/>
<path d="M2980 4220 c0 -5 7 -10 15 -10 8 0 15 5 15 10 0 6 -7 10 -15 10 -8 0
-15 -4 -15 -10z"/>
<path d="M4356 4183 c-6 -14 -5 -15 5 -6 7 7 10 15 7 18 -3 3 -9 -2 -12 -12z"/>
<path d="M2970 4180 c0 -12 8 -12 35 0 18 8 17 9 -7 9 -16 1 -28 -3 -28 -9z"/>
<path d="M2941 4165 c0 -11 4 -29 9 -40 l9 -20 0 20 c0 11 -4 29 -9 40 l-9 20
0 -20z"/>
<path d="M3680 4170 c0 -5 5 -10 10 -10 6 0 10 5 10 10 0 6 -4 10 -10 10 -5 0
-10 -4 -10 -10z"/>
<path d="M2970 4153 c0 -6 7 -18 15 -27 8 -8 15 -23 16 -33 0 -17 1 -17 8 0 6
17 8 16 19 -7 6 -14 17 -26 23 -26 8 0 6 7 -4 18 -10 10 -17 24 -17 30 0 7 -6
12 -14 12 -8 0 -22 10 -30 22 -9 12 -16 17 -16 11z"/>
<path d="M3148 4123 c7 -3 16 -2 19 1 4 3 -2 6 -13 5 -11 0 -14 -3 -6 -6z"/>
<path d="M3876 4111 c-9 -15 18 -31 34 -21 12 8 11 10 -5 10 -17 0 -17 2 -5
10 13 8 13 10 -2 10 -9 0 -19 -4 -22 -9z"/>
<path d="M3940 4099 c0 -19 21 -49 34 -49 3 0 10 9 16 20 9 16 8 18 -5 13 -11
-4 -18 1 -22 16 -7 27 -23 27 -23 0z"/>
<path d="M4303 4113 c-15 -5 -17 -23 -4 -23 5 0 11 7 15 15 3 8 4 15 3 14 -1
0 -8 -3 -14 -6z"/>
<path d="M3045 4100 c3 -5 8 -10 11 -10 2 0 4 5 4 10 0 6 -5 10 -11 10 -5 0
-7 -4 -4 -10z"/>
<path d="M2965 4041 c2 -27 9 -69 15 -93 7 -24 18 -65 25 -93 8 -27 17 -74 21
-104 4 -33 9 -49 14 -41 5 7 6 19 3 27 -3 7 0 13 7 13 6 0 8 5 4 11 -4 8 -9 7
-16 -2 -7 -10 -8 -8 -3 6 12 33 12 74 1 72 -6 -1 -10 7 -9 17 1 11 -6 25 -15
32 -9 7 -14 15 -11 19 4 3 1 26 -7 50 -14 49 -1 72 23 40 7 -11 13 -13 13 -6
0 22 -26 41 -39 28 -8 -8 -11 -7 -11 5 0 9 6 19 13 22 9 3 7 9 -5 19 -10 8
-15 17 -11 20 3 4 1 7 -5 7 -7 0 -9 -18 -7 -49z"/>
<path d="M3078 4063 c7 -3 16 -2 19 1 4 3 -2 6 -13 5 -11 0 -14 -3 -6 -6z"/>
<path d="M3223 4055 c0 -8 4 -12 9 -9 5 3 6 10 3 15 -9 13 -12 11 -12 -6z"/>
<path d="M3120 4056 c0 -2 9 -6 20 -9 11 -3 18 -1 14 4 -5 9 -34 13 -34 5z"/>
<path d="M3100 4030 c0 -5 5 -10 10 -10 6 0 10 5 10 10 0 6 -4 10 -10 10 -5 0
-10 -4 -10 -10z"/>
<path d="M3060 4019 c0 -5 5 -7 10 -4 6 3 14 -5 19 -18 10 -26 31 -45 31 -29
0 13 -40 62 -51 62 -5 0 -9 -5 -9 -11z"/>
<path d="M3210 4010 c0 -5 10 -10 23 -10 18 0 19 2 7 10 -19 13 -30 13 -30 0z"/>
<path d="M4130 4000 c0 -5 4 -10 9 -10 6 0 13 5 16 10 3 6 -1 10 -9 10 -9 0
-16 -4 -16 -10z"/>
<path d="M3061 3984 c0 -11 3 -14 6 -6 3 7 2 16 -1 19 -3 4 -6 -2 -5 -13z"/>
<path d="M4170 3990 c0 -5 5 -10 10 -10 6 0 10 5 10 10 0 6 -4 10 -10 10 -5 0
-10 -4 -10 -10z"/>
<path d="M3034 3953 c2 -9 8 -19 14 -21 6 -2 8 5 5 17 -6 25 -22 28 -19 4z"/>
<path d="M3140 3960 c0 -14 -37 -49 -44 -43 -4 4 -4 0 0 -10 3 -9 17 -18 30
-18 45 -3 49 -4 54 -11 3 -4 5 15 5 41 0 42 -2 47 -22 47 -13 0 -23 -3 -23 -6z
m30 -28 c0 -12 -9 -18 -27 -20 -25 -1 -26 0 -11 12 10 7 15 16 11 19 -3 4 1 7
10 7 10 0 17 -8 17 -18z"/>
<path d="M4116 3958 c3 -4 11 -5 19 -1 21 7 19 12 -4 10 -11 0 -18 -5 -15 -9z"/>
<path d="M3194 3938 c1 -7 5 -19 9 -25 5 -7 6 -17 3 -22 -3 -5 6 -11 21 -14
30 -6 72 16 54 28 -6 3 -11 1 -11 -6 0 -8 -4 -8 -15 1 -13 11 -14 10 -9 -6 7
-19 7 -19 -14 0 -12 11 -22 27 -22 38 0 10 -4 18 -9 18 -5 0 -8 -6 -7 -12z"/>
<path d="M3078 3933 c7 -3 16 -2 19 1 4 3 -2 6 -13 5 -11 0 -14 -3 -6 -6z"/>
<path d="M3255 3930 c3 -5 8 -10 11 -10 2 0 4 5 4 10 0 6 -5 10 -11 10 -5 0
-7 -4 -4 -10z"/>
<path d="M3325 3930 c-3 -5 -1 -10 4 -10 6 0 11 5 11 10 0 6 -2 10 -4 10 -3 0
-8 -4 -11 -10z"/>
<path d="M4741 3924 c0 -11 3 -14 6 -6 3 7 2 16 -1 19 -3 4 -6 -2 -5 -13z"/>
<path d="M3056 3911 c-3 -5 1 -12 10 -15 22 -8 25 -4 9 11 -8 7 -16 9 -19 4z"/>
<path d="M3302 3878 c2 -6 10 -13 16 -14 7 -1 8 0 2 3 -5 2 -8 9 -4 14 3 5 0
9 -6 9 -7 0 -10 -5 -8 -12z"/>
<path d="M4802 3870 c0 -14 2 -19 5 -12 2 6 2 18 0 25 -3 6 -5 1 -5 -13z"/>
<path d="M3094 3860 c0 -24 12 -25 34 -3 15 15 15 16 1 11 -9 -4 -21 -2 -26 3
-5 5 -9 1 -9 -11z"/>
<path d="M3230 3856 c0 -10 12 -27 26 -39 21 -16 25 -26 21 -52 -3 -18 0 -38
6 -44 6 -6 7 -11 3 -11 -5 0 -3 -6 3 -14 8 -10 9 -16 1 -21 -13 -8 -13 -25 0
-25 6 0 10 7 10 16 0 9 5 12 13 8 6 -4 3 3 -8 16 l-20 23 20 -8 c11 -4 28 -8
38 -9 9 0 17 -4 17 -8 0 -4 7 -8 15 -8 9 0 15 -6 14 -12 -3 -23 1 -38 9 -37 4
1 15 1 26 0 14 -1 16 -4 7 -14 -6 -8 -8 -17 -4 -21 4 -4 0 -4 -10 0 -9 3 -17
10 -17 15 0 9 -59 49 -72 49 -11 0 -10 -22 1 -39 7 -12 13 -12 24 -3 17 15 31
3 16 -14 -8 -10 -2 -14 25 -19 19 -4 35 -10 34 -14 -3 -14 15 -41 28 -41 8 0
14 -4 14 -8 0 -5 24 -21 54 -35 30 -15 57 -31 61 -36 3 -5 35 -24 72 -42 36
-18 75 -41 85 -51 11 -11 26 -17 34 -14 8 3 28 -3 44 -12 23 -14 27 -21 18
-30 -9 -9 -9 -12 -1 -12 7 0 15 5 18 10 10 16 27 0 20 -17 -4 -13 -3 -14 10
-3 8 7 15 8 15 3 0 -10 12 -12 64 -14 16 0 45 -7 64 -15 20 -8 44 -12 55 -8
13 4 17 2 13 -5 -4 -6 -1 -11 7 -11 9 0 15 10 15 25 0 16 -5 22 -12 18 -7 -4
-6 -1 1 9 7 8 10 17 7 20 -2 3 2 8 11 12 12 4 14 2 6 -13 -13 -23 -5 -31 28
-30 l26 1 -25 8 c-21 7 -22 8 -5 10 11 1 14 4 8 7 -26 10 -12 19 22 15 19 -2
35 0 35 6 0 5 10 7 23 5 12 -2 35 3 52 11 31 16 46 13 27 -6 -19 -19 -14 -30
8 -18 11 6 20 8 20 4 0 -4 8 3 19 14 10 12 23 22 30 22 6 0 12 10 12 23 1 17
2 18 6 4 2 -9 9 -15 14 -12 5 4 9 2 9 -4 0 -5 8 -8 18 -6 9 2 21 4 26 4 6 1 1
8 -10 17 -19 15 -19 15 2 11 17 -4 20 -1 17 14 -4 13 0 19 10 19 24 0 73 45
59 54 -7 4 -12 1 -12 -8 0 -8 -5 -18 -12 -22 -8 -5 -9 -1 -5 12 6 16 4 15 -12
-3 -22 -26 -33 -30 -25 -8 4 8 1 15 -6 15 -6 0 -10 6 -7 13 2 6 8 12 13 12 5
0 14 3 20 7 12 8 34 6 53 -6 11 -7 13 -5 8 6 -3 9 0 21 6 27 9 9 8 10 -7 5
-15 -6 -17 -4 -11 6 5 9 4 11 -3 6 -7 -4 -12 -15 -13 -24 0 -11 -3 -12 -6 -4
-2 6 -14 12 -26 12 -21 0 -21 0 -2 14 11 7 24 14 29 14 5 0 13 7 18 16 11 19
39 21 56 4 9 -9 12 -3 12 29 0 23 -5 44 -12 47 -7 4 -2 4 11 2 23 -5 44 9 48
31 2 7 -4 10 -12 7 -8 -4 -15 -11 -15 -16 0 -7 -5 -6 -13 1 -8 6 -16 8 -19 6
-3 -3 -8 3 -11 15 -6 24 18 28 31 4 7 -13 10 -13 21 -1 9 12 6 16 -23 21 -19
4 -36 12 -39 19 -2 6 -4 -9 -5 -33 -1 -25 -7 -46 -12 -48 -6 -2 -10 -8 -10
-13 0 -6 6 -7 13 -3 8 5 7 2 -2 -9 -8 -10 -11 -21 -7 -25 4 -4 12 1 17 11 14
24 27 21 27 -7 0 -19 -5 -22 -22 -18 -11 3 -27 9 -33 15 -9 6 -13 6 -13 -2 0
-6 -6 -11 -13 -11 -8 0 -22 -16 -33 -35 -17 -31 -17 -37 -4 -46 13 -9 13 -10
0 -6 -16 4 -40 -15 -40 -32 0 -6 -7 -11 -16 -11 -14 0 -14 -3 -4 -15 10 -12
10 -15 -4 -15 -9 0 -16 8 -17 18 -1 11 -4 9 -9 -8 -5 -17 -8 -19 -9 -7 -1 23
-8 22 -36 -9 -14 -15 -25 -21 -25 -14 0 7 -8 10 -19 7 -10 -2 -26 0 -35 5 -12
7 -16 5 -16 -6 0 -10 -6 -13 -15 -10 -8 4 -13 10 -10 14 3 5 -1 10 -7 13 -7 3
1 4 17 2 37 -3 115 20 126 37 6 9 9 9 9 1 0 -6 9 -11 20 -10 11 1 20 5 20 10
0 4 5 5 10 2 6 -3 10 -1 10 6 0 6 7 17 14 23 20 15 32 66 16 66 -6 0 -8 -5 -4
-12 5 -7 2 -9 -9 -5 -8 3 -18 0 -21 -8 -3 -10 0 -12 11 -8 11 4 14 2 11 -8 -3
-8 -11 -13 -18 -11 -7 1 -18 -2 -26 -9 -8 -6 -20 -9 -28 -6 -8 3 -17 1 -20 -6
-3 -9 -7 -9 -13 1 -7 9 -13 6 -23 -13 -10 -19 -16 -22 -27 -13 -7 6 -16 8 -20
5 -3 -4 -15 -2 -26 4 -11 7 -17 7 -13 1 5 -9 -29 -26 -47 -23 -5 1 -6 -3 -3
-8 4 -5 2 -12 -3 -15 -5 -3 -11 1 -15 9 -4 11 -11 13 -31 5 -20 -8 -25 -6 -25
6 0 13 -3 14 -13 5 -10 -8 -17 -7 -25 1 -9 9 -16 7 -28 -8 -8 -10 -13 -14 -10
-7 4 6 -3 15 -16 19 -13 4 -24 2 -26 -5 -2 -6 -9 -11 -15 -11 -7 1 -1 10 12
21 17 14 26 17 32 8 5 -8 10 -5 18 9 9 18 8 19 -12 15 -12 -3 -26 -9 -32 -13
-17 -12 -55 -19 -55 -9 0 4 -7 5 -17 2 -11 -4 -14 -3 -9 5 6 10 -26 18 -56 13
-4 0 -5 6 -2 14 4 9 1 22 -6 30 -6 8 -9 19 -5 25 4 6 1 9 -7 8 -7 -2 -12 3
-10 10 1 8 -2 11 -8 7 -5 -3 -10 0 -10 7 0 7 -7 0 -15 -16 -17 -33 -19 -39 -6
-32 5 4 12 0 14 -6 3 -8 6 -5 6 6 1 16 3 16 17 5 13 -11 12 -14 -13 -24 -25
-10 -29 -9 -36 8 -4 11 -3 25 3 32 8 9 8 15 0 20 -5 3 -10 1 -10 -4 0 -6 -7
-11 -16 -11 -8 0 -12 5 -9 10 9 14 -8 12 -24 -2 -11 -11 -13 -10 -9 2 5 12 -5
15 -49 15 -30 -1 -57 3 -59 7 -3 5 -2 8 3 7 23 -4 35 2 29 16 -4 11 1 15 19
15 14 0 25 5 25 11 0 6 7 9 15 5 8 -3 15 -1 15 5 0 14 -38 6 -87 -18 -24 -12
-43 -17 -43 -12 0 5 5 9 10 9 6 0 10 7 10 16 0 10 -4 12 -12 7 -16 -10 -108
-11 -108 -1 0 5 5 8 11 8 21 0 -1 18 -30 23 -15 3 -31 13 -35 23 -5 13 -1 16
24 12 16 -3 30 -1 30 3 0 13 -28 17 -64 9 -23 -5 -38 -4 -43 3 -3 5 -1 7 5 3
15 -9 23 7 11 24 -8 12 -12 12 -16 3 -2 -7 -9 -13 -14 -13 -6 0 -7 4 -4 10 3
6 -1 7 -9 4 -9 -3 -16 -1 -16 5 0 6 12 11 26 11 15 0 23 4 19 10 -4 6 -15 8
-26 5 -15 -5 -19 -1 -19 20 0 23 -2 25 -22 14 -17 -9 -23 -9 -26 0 -2 6 -8 9
-13 5 -5 -3 -9 0 -9 5 0 6 -4 11 -10 11 -5 0 -10 -8 -10 -17 0 -15 -2 -14 -15
3 -14 18 -14 18 -15 0z m110 -31 c0 -8 -4 -15 -10 -15 -5 0 -10 7 -10 15 0 8
5 15 10 15 6 0 10 -7 10 -15z m1 -95 c5 0 9 -7 9 -15 0 -17 -2 -18 -24 -9 -9
3 -13 10 -10 15 3 5 -2 6 -10 3 -13 -5 -16 2 -16 32 l0 39 21 -32 c12 -18 25
-33 30 -33z m222 -97 c-3 -6 -11 -9 -19 -6 -20 7 -17 19 5 19 11 0 17 -6 14
-13z m-94 -47 c10 -12 8 -13 -8 -9 -12 3 -21 9 -21 14 0 14 16 11 29 -5z m221
5 c0 -5 -7 -11 -14 -14 -10 -4 -13 -1 -9 9 6 15 23 19 23 5z m-225 -41 c3 -5
1 -10 -4 -10 -6 0 -11 5 -11 10 0 6 2 10 4 10 3 0 8 -4 11 -10z m395 -40 c0
-5 -4 -10 -10 -10 -5 0 -10 5 -10 10 0 6 5 10 10 10 6 0 10 -4 10 -10z m320
-120 c0 -19 -3 -21 -9 -11 -5 8 -7 21 -3 29 3 10 1 13 -7 8 -6 -4 -10 -15 -9
-23 2 -9 -2 -18 -8 -20 -7 -2 -11 6 -10 22 0 14 7 25 14 25 6 0 12 6 12 13 0
8 4 7 10 -3 5 -8 10 -26 10 -40z m-110 20 c0 -5 -2 -10 -4 -10 -3 0 -8 5 -11
10 -3 6 -1 10 4 10 6 0 11 -4 11 -10z m160 -1 c0 -5 -5 -7 -12 -3 -7 4 -8 3
-4 -4 4 -7 25 -10 49 -8 23 2 36 2 29 -1 -6 -3 -10 -8 -7 -12 2 -5 -6 -6 -19
-4 -13 3 -34 -1 -47 -8 -21 -11 -23 -11 -11 3 10 13 10 17 -3 22 -22 8 -19 26
5 26 11 0 20 -5 20 -11z m-136 -14 c-4 -8 -11 -15 -16 -15 -6 0 -5 6 2 15 7 8
14 15 16 15 2 0 1 -7 -2 -15z m28 -3 c-7 -2 -9 -9 -6 -14 4 -7 2 -8 -4 -4 -6
4 -9 13 -6 21 4 8 11 12 17 8 8 -5 7 -8 -1 -11z m229 -34 c11 -21 11 -22 -4
-9 -10 7 -17 17 -17 22 0 15 9 10 21 -13z m-424 -14 c-3 -3 -12 -4 -19 -1 -8
3 -5 6 6 6 11 1 17 -2 13 -5z m162 -51 c2 -2 -9 -3 -25 -2 -16 0 -23 3 -16 6
6 2 9 10 5 16 -4 7 2 5 13 -3 10 -8 21 -16 23 -17z"/>
<path d="M3195 3840 c-3 -5 -1 -10 4 -10 6 0 11 5 11 10 0 6 -2 10 -4 10 -3 0
-8 -4 -11 -10z"/>
<path d="M3122 3819 c2 -7 10 -15 17 -17 8 -3 12 1 9 9 -2 7 -10 15 -17 17 -8
3 -12 -1 -9 -9z"/>
<path d="M4766 3808 c3 -5 10 -6 15 -3 13 9 11 12 -6 12 -8 0 -12 -4 -9 -9z"/>
<path d="M3155 3800 c-9 -15 33 -70 53 -69 11 0 12 3 5 6 -7 2 -13 11 -13 19
0 9 -4 12 -10 9 -5 -3 -10 -4 -10 -1 0 2 -3 12 -7 22 -5 13 -3 15 7 9 9 -5 11
-4 6 3 -9 15 -23 15 -31 2z"/>
<path d="M3230 3802 c0 -5 7 -9 15 -9 8 0 15 4 15 9 0 4 -7 8 -15 8 -8 0 -15
-4 -15 -8z"/>
<path d="M4680 3786 c0 -2 8 -10 18 -17 15 -13 16 -12 3 4 -13 16 -21 21 -21
13z"/>
<path d="M4755 3770 c-3 -5 -1 -10 4 -10 6 0 11 5 11 10 0 6 -2 10 -4 10 -3 0
-8 -4 -11 -10z"/>
<path d="M4460 3766 c0 -2 7 -6 15 -10 8 -3 15 -1 15 4 0 6 -7 10 -15 10 -8 0
-15 -2 -15 -4z"/>
<path d="M4663 3735 c0 -8 4 -15 9 -15 4 0 8 4 8 9 0 6 -4 12 -8 15 -5 3 -9
-1 -9 -9z"/>
<path d="M3057 3720 c-3 -11 -1 -23 4 -26 5 -3 9 6 9 20 0 31 -6 34 -13 6z"/>
<path d="M3568 3719 c24 -22 44 -27 67 -18 16 6 13 8 -14 8 -22 1 -32 5 -28
14 3 7 -4 12 -18 12 -22 0 -22 -1 -7 -16z"/>
<path d="M3245 3710 c-19 -7 -19 -8 -2 -15 19 -8 31 -2 26 13 -2 5 -13 6 -24
2z"/>
<path d="M3866 3703 c-6 -14 -5 -15 5 -6 7 7 10 15 7 18 -3 3 -9 -2 -12 -12z"/>
<path d="M3921 3707 c-8 -10 -7 -14 2 -14 8 0 14 6 14 14 0 7 -1 13 -2 13 -2
0 -8 -6 -14 -13z"/>
<path d="M3585 3680 c-3 -5 -1 -10 4 -10 6 0 11 5 11 10 0 6 -2 10 -4 10 -3 0
-8 -4 -11 -10z"/>
<path d="M3630 3686 c0 -2 7 -6 15 -10 8 -3 15 -1 15 4 0 6 -7 10 -15 10 -8 0
-15 -2 -15 -4z"/>
<path d="M3067 3669 c7 -7 15 -10 18 -7 3 3 -2 9 -12 12 -14 6 -15 5 -6 -5z"/>
<path d="M3009 3656 c-48 -15 -68 -33 -64 -56 2 -12 -4 -21 -17 -26 -16 -5
-18 -8 -7 -15 9 -6 10 -9 2 -9 -14 0 -12 -48 2 -58 6 -4 16 -19 23 -35 6 -15
23 -32 37 -37 14 -5 34 -23 43 -40 9 -16 22 -30 27 -30 6 -1 28 -19 50 -40 22
-22 48 -40 58 -40 9 0 17 -4 17 -9 0 -5 14 -19 30 -31 26 -19 33 -20 48 -8 15
11 15 11 5 -3 -10 -13 -5 -21 37 -52 28 -21 50 -33 50 -27 0 5 -4 10 -10 10
-5 0 -10 7 -10 16 0 8 -3 13 -8 10 -11 -7 -43 20 -46 38 -1 9 -5 15 -9 14 -3
-2 -16 11 -29 28 -24 32 -42 53 -70 84 -30 33 -46 65 -43 83 2 12 -1 17 -9 14
-14 -6 -18 22 -5 39 6 7 3 16 -6 24 -8 7 -15 19 -15 27 0 7 -10 24 -21 36 -12
12 -18 15 -14 7 6 -12 5 -12 -5 -3 -7 7 -11 29 -9 57 3 25 4 46 4 45 0 -1 -16
-6 -36 -13z m61 -126 c0 -5 -2 -10 -4 -10 -3 0 -8 5 -11 10 -3 6 -1 10 4 10 6
0 11 -4 11 -10z"/>
<path d="M3750 3659 c0 -5 5 -7 10 -4 6 3 10 8 10 11 0 2 -4 4 -10 4 -5 0 -10
-5 -10 -11z"/>
<path d="M3930 3660 c0 -5 5 -10 10 -10 6 0 10 5 10 10 0 6 -4 10 -10 10 -5 0
-10 -4 -10 -10z"/>
<path d="M4430 3637 c-12 -21 -12 -21 6 -7 10 8 20 15 22 16 2 1 -1 4 -5 7 -5
3 -15 -4 -23 -16z"/>
<path d="M3084 3638 c3 -7 9 -21 12 -30 4 -10 11 -18 16 -18 5 0 6 -6 2 -12
-4 -7 -4 -10 1 -6 4 4 26 -11 49 -32 93 -89 130 -120 138 -120 5 0 -9 18 -32
40 -23 22 -44 40 -48 40 -10 0 -102 99 -102 111 0 11 -25 39 -35 39 -4 0 -4
-6 -1 -12z"/>
<path d="M3761 3641 c-8 -5 -9 -11 -3 -15 5 -3 12 1 16 9 6 17 6 18 -13 6z"/>
<path d="M4530 3632 c0 -5 7 -9 15 -9 8 0 12 4 9 9 -3 4 -9 8 -15 8 -5 0 -9
-4 -9 -8z"/>
<path d="M3920 3620 c-12 -8 -9 -10 13 -10 16 0 26 4 22 10 -8 12 -16 12 -35
0z"/>
<path d="M4700 3620 c-9 -6 -10 -10 -3 -10 6 0 15 5 18 10 8 12 4 12 -15 0z"/>
<path d="M4388 3603 c7 -3 16 -2 19 1 4 3 -2 6 -13 5 -11 0 -14 -3 -6 -6z"/>
<path d="M3935 3560 c-3 -5 -1 -10 4 -10 6 0 11 5 11 10 0 6 -2 10 -4 10 -3 0
-8 -4 -11 -10z"/>
<path d="M3963 3548 c-12 -6 -24 -17 -27 -25 -3 -8 -1 -11 4 -8 6 3 10 0 10
-7 0 -10 2 -10 9 1 6 9 18 12 32 8 22 -6 23 -5 5 8 -10 7 -15 18 -11 24 7 13
7 13 -22 -1z"/>
<path d="M4367 3540 c-16 -19 -16 -20 2 -20 14 0 19 6 18 20 -1 11 -2 20 -2
20 0 0 -8 -9 -18 -20z"/>
<path d="M4405 3550 c3 -5 8 -10 11 -10 2 0 4 5 4 10 0 6 -5 10 -11 10 -5 0
-7 -4 -4 -10z"/>
<path d="M4680 3556 c0 -2 8 -10 18 -17 15 -13 16 -12 3 4 -13 16 -21 21 -21
13z"/>
<path d="M3910 3540 c0 -5 5 -10 11 -10 5 0 7 5 4 10 -3 6 -8 10 -11 10 -2 0
-4 -4 -4 -10z"/>
<path d="M4225 3520 c3 -5 8 -10 11 -10 2 0 4 5 4 10 0 6 -5 10 -11 10 -5 0
-7 -4 -4 -10z"/>
<path d="M3551 3444 c0 -11 3 -14 6 -6 3 7 2 16 -1 19 -3 4 -6 -2 -5 -13z"/>
<path d="M71 3424 c0 -11 3 -14 6 -6 3 7 2 16 -1 19 -3 4 -6 -2 -5 -13z"/>
<path d="M4565 3430 c3 -5 8 -10 11 -10 2 0 4 5 4 10 0 6 -5 10 -11 10 -5 0
-7 -4 -4 -10z"/>
<path d="M3335 3400 c10 -11 22 -20 26 -20 5 0 1 9 -8 20 -10 11 -22 20 -27
20 -5 0 -1 -9 9 -20z"/>
<path d="M4506 3396 c3 -9 11 -16 16 -16 13 0 5 23 -10 28 -7 2 -10 -2 -6 -12z"/>
<path d="M3441 3337 c2 -1 13 -9 24 -17 19 -14 19 -14 6 3 -7 9 -18 17 -24 17
-6 0 -8 -1 -6 -3z"/>
<path d="M4400 3320 c-9 -6 -10 -10 -3 -10 6 0 15 5 18 10 8 12 4 12 -15 0z"/>
<path d="M4857 3306 c-3 -8 -7 -66 -8 -129 0 -62 -8 -154 -15 -203 -8 -49 -19
-125 -24 -169 -11 -92 -36 -231 -45 -245 -16 -26 -39 -340 -25 -340 14 0 6
-106 -9 -124 -22 -26 -7 -29 20 -4 14 13 29 24 34 25 11 2 24 35 18 45 -2 4 3
5 11 2 10 -4 16 -1 17 7 0 8 4 5 9 -6 14 -31 12 -37 -11 -30 -16 5 -20 3 -16
-6 2 -8 10 -13 16 -12 6 2 11 -4 11 -13 0 -13 -3 -14 -15 -4 -11 9 -19 9 -35
-3 -15 -11 -18 -17 -9 -22 8 -6 5 -12 -11 -20 -22 -12 -21 -13 33 -49 67 -44
74 -52 80 -91 3 -16 4 5 2 48 -2 42 0 77 4 77 4 0 8 -15 9 -32 4 -53 22 -58
22 -6 0 30 -5 48 -14 51 -15 6 -25 104 -28 274 -1 56 -5 100 -10 97 -8 -5 -5
33 8 103 7 35 7 36 23 17 21 -24 29 -26 116 -30 39 -1 59 -1 45 2 -92 16 -130
27 -145 44 -23 25 -19 25 30 0 43 -22 49 -21 39 4 -4 9 -13 15 -20 12 -8 -3
-14 -1 -14 5 0 6 -4 7 -10 4 -5 -3 -10 -1 -10 4 0 6 6 11 14 11 14 0 30 29 21
38 -3 3 -5 -1 -5 -8 0 -7 -3 -10 -7 -7 -3 4 -11 -1 -18 -10 -17 -22 -35 -8
-35 28 0 19 5 29 15 29 9 0 15 9 15 24 0 13 7 40 16 61 15 38 11 95 -7 95 -12
0 -4 62 11 90 14 26 13 28 -14 23 -23 -5 -24 -2 -24 43 0 35 6 56 25 81 27 35
14 46 -19 16 -17 -15 -20 -15 -28 -3 -13 20 -12 30 1 30 6 0 8 9 4 20 -4 12
-2 27 5 35 7 9 8 15 1 20 -6 3 -16 16 -22 28 -11 21 -11 21 7 6 36 -30 43 -31
31 -4 -7 14 -15 25 -19 25 -5 0 -8 6 -8 13 0 6 -7 20 -14 30 -12 15 -15 15
-19 3z m35 -618 c-7 -7 -12 -8 -12 -2 0 6 3 14 7 17 3 4 9 5 12 2 2 -3 -1 -11
-7 -17z m-71 -325 c-10 -17 -10 -16 -11 3 0 23 13 41 18 25 2 -6 -1 -18 -7
-28z m36 -9 c-3 -3 -12 -4 -19 -1 -8 3 -5 6 6 6 11 1 17 -2 13 -5z m-4 -54 c6
-32 5 -33 -8 -16 -8 10 -12 23 -9 27 3 5 -1 9 -8 9 -10 0 -9 3 2 10 17 11 16
13 23 -30z m-41 -23 c2 -20 8 -27 23 -27 19 -1 19 -1 2 -14 -14 -11 -15 -15
-5 -19 10 -4 10 -8 -2 -16 -19 -14 -40 -14 -40 0 0 5 5 7 10 4 6 -3 10 3 10
14 0 11 -4 22 -8 25 -5 3 -7 19 -4 36 5 36 11 35 14 -3z m13 -208 c-10 -15
-25 -10 -19 6 4 8 10 12 15 9 5 -3 7 -10 4 -15z"/>
<path d="M4528 3063 c7 -3 16 -2 19 1 4 3 -2 6 -13 5 -11 0 -14 -3 -6 -6z"/>
<path d="M4990 3029 c0 -5 5 -7 10 -4 6 3 10 8 10 11 0 2 -4 4 -10 4 -5 0 -10
-5 -10 -11z"/>
<path d="M2730 2926 c0 -18 103 -126 121 -126 5 0 -15 24 -44 53 -30 28 -59
61 -65 72 -11 19 -11 19 -12 1z"/>
<path d="M2890 2751 c0 -6 5 -11 12 -11 6 0 3 -9 -7 -20 -10 -11 -13 -20 -7
-20 6 0 14 5 17 10 4 6 31 -13 61 -42 76 -72 91 -74 26 -3 -62 67 -102 101
-102 86z"/>
<path d="M5393 2732 c-30 -4 -29 -19 2 -48 22 -20 25 -29 19 -66 -13 -80 -51
-128 -105 -128 -32 0 -42 -9 -26 -25 48 -51 60 -83 58 -153 -1 -37 1 -42 13
-30 34 33 58 48 82 54 14 4 28 13 31 20 3 8 11 14 19 14 18 0 18 19 0 39 -19
22 -9 82 15 88 11 3 19 10 19 15 0 5 -4 7 -10 3 -5 -3 -5 6 1 24 19 54 -2 125
-50 172 -21 19 -40 26 -68 21z m104 -117 c0 -8 -4 -12 -9 -9 -4 3 -8 9 -8 15
0 5 4 9 8 9 5 0 9 -7 9 -15z m-34 -13 c10 -10 14 -21 11 -24 -3 -3 2 -5 12 -4
9 0 19 -5 22 -13 2 -8 0 -11 -6 -8 -5 4 -12 -2 -15 -13 -6 -25 -33 -26 -45 -2
-12 23 -14 82 -4 82 5 0 16 -8 25 -18z"/>
<path d="M5480 2715 c7 -9 15 -13 17 -11 7 7 -7 26 -19 26 -6 0 -6 -6 2 -15z"/>
<path d="M7831 2704 c0 -11 3 -14 6 -6 3 7 2 16 -1 19 -3 4 -6 -2 -5 -13z"/>
<path d="M3073 2566 c20 -20 40 -36 43 -36 11 0 -38 50 -60 62 -10 6 -3 -6 17
-26z"/>
<path d="M4925 2501 c-3 -5 -1 -12 5 -16 5 -3 10 1 10 9 0 18 -6 21 -15 7z"/>
<path d="M5148 2502 c-12 -2 -18 -13 -18 -33 0 -33 -41 -118 -70 -144 -11 -10
-20 -24 -20 -30 0 -7 -6 -15 -14 -18 -8 -3 -17 -24 -20 -46 -3 -23 -9 -58 -12
-78 -3 -21 -1 -49 5 -63 l10 -25 0 27 c1 15 6 39 13 55 6 15 11 31 10 36 -1 4
2 7 8 7 5 0 7 7 4 15 -4 8 -1 15 5 15 6 0 11 17 11 40 0 22 5 40 10 40 6 0 10
-5 10 -11 0 -5 4 -8 9 -5 5 4 12 0 14 -6 3 -7 11 1 18 20 8 17 19 32 26 32 7
0 13 8 14 18 0 10 3 12 6 4 2 -6 9 -9 15 -6 5 3 9 0 7 -7 -5 -43 2 -65 23 -66
11 -1 24 -6 27 -12 4 -6 12 -6 20 -2 19 12 2 60 -39 111 -19 24 -30 49 -30 69
0 25 -4 31 -22 32 -15 1 -11 4 12 9 22 5 27 8 13 9 -12 0 -23 5 -25 9 -1 4
-11 6 -20 4z"/>
<path d="M3165 2480 c10 -11 20 -20 23 -20 3 0 -3 9 -13 20 -10 11 -20 20 -23
20 -3 0 3 -9 13 -20z"/>
<path d="M5066 2454 c-4 -9 -4 -19 -1 -22 2 -3 7 3 11 12 4 9 4 19 1 22 -2 3
-7 -3 -11 -12z"/>
<path d="M4147 2431 c-15 -16 -27 -34 -27 -40 0 -5 -18 -29 -40 -53 -22 -24
-40 -46 -40 -49 0 -9 -91 -99 -100 -99 -4 0 -22 -16 -39 -35 -17 -19 -34 -35
-38 -35 -5 0 -25 -14 -46 -31 -34 -28 -41 -49 -16 -49 6 0 7 5 4 10 -4 6 5 10
19 10 14 0 26 3 26 8 0 10 50 32 75 32 11 0 28 9 38 20 11 13 29 20 52 20 19
0 35 5 35 10 0 7 7 7 18 2 24 -12 48 -8 44 7 -2 9 4 10 20 5 21 -6 21 -6 5 10
-15 16 -23 36 -13 36 11 0 73 -25 83 -34 35 -31 46 -38 78 -52 19 -8 65 -34
102 -57 86 -55 178 -98 222 -102 19 -2 37 -7 40 -13 3 -5 21 -8 38 -6 21 1 42
-5 58 -18 14 -10 29 -16 35 -13 5 3 10 1 10 -4 0 -6 7 -11 16 -11 10 0 14 -5
10 -16 -4 -10 -2 -13 6 -8 7 5 9 2 5 -8 -3 -9 2 -23 12 -32 10 -9 18 -32 19
-51 1 -19 5 -43 10 -53 20 -40 35 -131 24 -144 -17 -21 2 -41 37 -41 35 0 35
-1 20 -29 -8 -16 -8 -19 1 -13 8 5 11 3 8 -6 -3 -8 2 -20 9 -28 16 -16 12 -47
-6 -43 -9 2 -9 -3 -2 -17 6 -10 7 -22 3 -26 -4 -3 -2 -5 3 -4 21 7 54 -22 60
-53 4 -18 17 -62 30 -98 25 -70 40 -129 36 -144 -1 -5 5 -26 14 -48 8 -21 15
-49 15 -61 0 -13 16 -61 35 -107 45 -109 45 -85 0 54 -19 60 -35 121 -35 135
0 14 -7 39 -15 55 -8 15 -15 35 -15 44 0 9 -11 50 -25 91 -45 132 -47 141 -40
170 3 16 2 32 -3 35 -6 4 -8 -3 -5 -16 4 -16 2 -20 -5 -13 -11 11 -39 105 -52
175 -4 24 -12 46 -18 48 -6 2 -20 36 -32 75 -12 40 -33 97 -46 128 -14 30 -24
66 -22 80 3 21 -1 24 -32 27 -19 2 -41 9 -48 15 -8 6 -35 14 -60 18 -26 4 -60
11 -77 17 -16 6 -62 20 -101 32 -62 18 -76 26 -115 73 -59 68 -89 112 -89 128
0 8 10 -1 23 -18 23 -34 89 -83 110 -83 7 0 3 6 -8 12 -11 6 -24 17 -28 25 -4
7 -14 13 -22 13 -8 0 -25 18 -37 39 -13 22 -31 42 -40 45 -19 4 -25 26 -8 26
6 0 10 -5 10 -12 0 -6 3 -8 6 -5 4 4 -1 18 -10 32 -9 14 -12 25 -6 25 6 0 8 5
5 10 -3 6 -16 10 -28 9 -12 0 -16 -3 -9 -6 6 -2 12 -16 12 -30 0 -21 -3 -23
-14 -14 -8 7 -27 16 -43 20 -21 6 -28 14 -29 33 -1 14 -4 30 -8 37 -11 17 15
13 38 -6 17 -16 17 -14 -3 15 -12 18 -27 30 -32 26 -5 -3 -8 0 -7 7 6 23 -18
18 -45 -10z m113 -241 c0 -5 -2 -10 -4 -10 -3 0 -8 5 -11 10 -3 6 -1 10 4 10
6 0 11 -4 11 -10z m682 -594 c7 -34 -5 -51 -22 -31 -7 8 -8 15 -2 15 5 0 8 9
5 20 -3 11 -1 20 5 20 5 0 12 -11 14 -24z m61 -196 c3 -11 2 -20 -3 -20 -14 0
-32 29 -25 40 9 14 21 5 28 -20z"/>
<path d="M3247 2391 c75 -77 80 -84 75 -100 -3 -8 0 -11 5 -8 13 8 67 -45 110
-110 19 -29 40 -56 46 -60 12 -8 3 10 -30 54 -13 18 -27 41 -31 53 -18 48
-197 230 -227 230 -3 0 20 -27 52 -59z"/>
<path d="M4915 2410 c-3 -6 1 -7 9 -4 18 7 21 14 7 14 -6 0 -13 -4 -16 -10z"/>
<path d="M2429 2369 l-24 -20 28 17 c15 9 27 18 27 20 0 8 -8 4 -31 -17z"/>
<path d="M5026 2363 c-6 -14 -5 -15 5 -6 7 7 10 15 7 18 -3 3 -9 -2 -12 -12z"/>
<path d="M5447 2281 c-42 -27 -45 -32 -38 -58 8 -32 51 -47 51 -18 0 11 5 15
14 12 15 -6 26 12 26 45 0 15 -5 19 -17 14 -15 -5 -15 -4 1 9 37 28 10 25 -37
-4z"/>
<path d="M4120 2129 c0 -5 11 -9 25 -9 33 0 33 15 0 16 -14 1 -25 -2 -25 -7z"/>
<path d="M4210 2110 c-9 -6 -10 -10 -3 -10 6 0 15 5 18 10 8 12 4 12 -15 0z"/>
<path d="M4237 2093 c7 -2 15 -4 19 -3 4 1 10 -3 13 -8 3 -6 20 -13 36 -16
l30 -6 -27 12 c-16 7 -28 15 -28 20 0 4 -12 8 -27 7 -16 0 -22 -3 -16 -6z"/>
<path d="M4942 2060 c0 -19 2 -27 5 -17 2 9 2 25 0 35 -3 9 -5 1 -5 -18z"/>
<path d="M3663 2004 c-24 -14 -43 -33 -43 -41 0 -12 7 -9 23 9 13 14 34 29 45
33 12 3 22 11 22 16 0 12 2 12 -47 -17z"/>
<path d="M4944 1925 c0 -49 1 -71 3 -48 2 23 2 64 0 90 -2 26 -3 8 -3 -42z"/>
<path d="M5003 1912 c-1 -28 1 -32 7 -17 11 26 12 55 3 55 -5 0 -9 -17 -10
-38z"/>
<path d="M4990 1855 c0 -8 4 -15 10 -15 5 0 7 7 4 15 -4 8 -8 15 -10 15 -2 0
-4 -7 -4 -15z"/>
<path d="M4941 1794 c0 -11 3 -14 6 -6 3 7 2 16 -1 19 -3 4 -6 -2 -5 -13z"/>
<path d="M5000 1777 c0 -22 11 -27 26 -12 19 19 18 25 -6 25 -11 0 -20 -6 -20
-13z"/>
<path d="M4972 1610 c0 -14 2 -19 5 -12 2 6 2 18 0 25 -3 6 -5 1 -5 -13z"/>
<path d="M4982 1575 c0 -5 6 -26 13 -45 7 -19 14 -28 14 -20 0 8 -6 29 -14 45
-7 17 -13 26 -13 20z"/>
<path d="M1295 1545 c-110 -36 -139 -51 -191 -101 -47 -46 -99 -114 -87 -114
3 0 41 35 83 78 83 84 101 94 253 134 l78 21 92 -23 c51 -13 98 -25 105 -28 6
-2 12 0 12 5 0 15 -162 53 -220 52 -30 0 -86 -11 -125 -24z"/>
<path d="M1016 1523 c-6 -14 -5 -15 5 -6 7 7 10 15 7 18 -3 3 -9 -2 -12 -12z"/>
<path d="M1680 1485 c7 -8 17 -15 22 -15 5 0 3 7 -6 15 -8 8 -18 15 -22 15 -3
0 -1 -7 6 -15z"/>
<path d="M4940 1454 c0 -8 5 -12 10 -9 6 3 10 10 10 16 0 5 -4 9 -10 9 -5 0
-10 -7 -10 -16z"/>
<path d="M987 1383 c-8 -29 -12 -53 -9 -53 11 0 31 36 32 57 0 12 7 28 15 37
14 13 13 15 -4 13 -14 -1 -23 -15 -34 -54z"/>
<path d="M1791 1403 c7 -12 15 -20 18 -17 3 2 -3 12 -13 22 -17 16 -18 16 -5
-5z"/>
<path d="M480 1323 c0 -13 5 -23 10 -23 13 0 13 11 0 30 -8 12 -10 11 -10 -7z"/>
<path d="M1860 1321 c0 -5 5 -13 10 -16 6 -3 10 -2 10 4 0 5 -4 13 -10 16 -5
3 -10 2 -10 -4z"/>
<path d="M1090 1308 c0 -4 4 -8 9 -8 6 0 12 4 15 8 3 5 -1 9 -9 9 -8 0 -15 -4
-15 -9z"/>
<path d="M5010 1291 c0 -6 4 -13 10 -16 6 -3 7 1 4 9 -7 18 -14 21 -14 7z"/>
<path d="M1070 1280 c0 -5 5 -10 11 -10 5 0 7 5 4 10 -3 6 -8 10 -11 10 -2 0
-4 -4 -4 -10z"/>
<path d="M1880 1283 c0 -7 3 -13 8 -13 4 0 20 -20 35 -45 32 -50 48 -62 20
-15 -27 46 -62 87 -63 73z"/>
<path d="M1960 1161 c0 -6 4 -13 10 -16 6 -3 7 1 4 9 -7 18 -14 21 -14 7z"/>
<path d="M1995 1110 c3 -5 8 -10 11 -10 2 0 4 5 4 10 0 6 -5 10 -11 10 -5 0
-7 -4 -4 -10z"/>
<path d="M6461 940 c-9 -5 -7 -9 8 -13 12 -3 23 -2 26 3 7 11 -19 20 -34 10z"/>
<path d="M5822 918 c2 -6 10 -14 16 -16 7 -2 10 2 6 12 -7 18 -28 22 -22 4z"/>
<path d="M1170 830 c0 -5 5 -10 10 -10 6 0 10 5 10 10 0 6 -4 10 -10 10 -5 0
-10 -4 -10 -10z"/>
<path d="M6040 816 c0 -9 8 -12 27 -8 25 5 25 6 8 13 -29 11 -35 10 -35 -5z"/>
<path d="M1191 784 c0 -11 3 -14 6 -6 3 7 2 16 -1 19 -3 4 -6 -2 -5 -13z"/>
<path d="M2216 777 c3 -10 9 -15 12 -12 3 3 0 11 -7 18 -10 9 -11 8 -5 -6z"/>
<path d="M6170 761 c0 -5 5 -13 10 -16 6 -3 10 -2 10 4 0 5 -4 13 -10 16 -5 3
-10 2 -10 -4z"/>
<path d="M5167 754 c-5 -5 10 -41 23 -54 3 -3 6 -19 6 -36 1 -17 9 -46 17 -65
9 -19 18 -50 22 -69 3 -19 10 -44 15 -55 5 -11 13 -40 19 -65 5 -25 14 -62 19
-82 6 -21 6 -35 1 -32 -5 3 -9 1 -9 -5 0 -5 5 -11 12 -13 7 -3 13 -16 13 -29
1 -14 5 -30 9 -37 4 -7 2 -12 -4 -12 -6 0 -8 -5 -5 -10 4 -6 11 -8 16 -5 5 4
9 -3 9 -14 0 -12 3 -21 8 -21 4 0 7 -12 8 -27 1 -46 10 -98 18 -111 4 -7 18
-12 31 -12 l24 0 -15 48 c-9 26 -19 56 -24 67 -18 43 -30 89 -30 114 0 15 -4
31 -9 37 -5 5 -23 59 -40 119 -64 219 -73 250 -82 259 -5 6 -9 26 -10 45 0 40
-17 91 -18 58 -1 -10 -6 -15 -11 -12 -6 4 -8 11 -5 16 7 10 2 12 -8 3z"/>
<path d="M1225 714 c9 -9 18 -14 21 -11 9 9 -6 27 -22 27 -13 0 -13 -2 1 -16z"/>
<path d="M1266 681 c-4 -5 -2 -12 3 -15 5 -4 12 -2 15 3 4 5 2 12 -3 15 -5 4
-12 2 -15 -3z"/>
<path d="M1305 671 c-3 -5 -1 -12 5 -16 5 -3 10 1 10 9 0 18 -6 21 -15 7z"/>
<path d="M6581 583 c0 -18 3 -33 8 -33 13 0 35 30 27 37 -4 4 -11 1 -16 -6 -6
-11 -9 -8 -13 10 -3 19 -5 18 -6 -8z"/>
<path d="M6280 586 c0 -8 4 -17 9 -20 5 -4 7 3 4 14 -6 23 -13 26 -13 6z"/>
<path d="M6008 583 c7 -3 16 -2 19 1 4 3 -2 6 -13 5 -11 0 -14 -3 -6 -6z"/>
<path d="M1361 554 c0 -11 3 -14 6 -6 3 7 2 16 -1 19 -3 4 -6 -2 -5 -13z"/>
<path d="M6357 553 c-11 -11 -8 -51 6 -65 7 -7 18 -25 24 -40 8 -18 24 -30 45
-36 41 -11 58 -5 58 18 0 10 3 27 6 37 5 15 4 15 -5 3 -9 -13 -11 -13 -11 2 0
42 -98 106 -123 81z m81 -44 c19 -18 32 -40 32 -55 0 -30 -22 -31 -50 -1 -68
71 -52 121 18 56z"/>
<path d="M6320 519 c0 -11 4 -18 10 -14 5 3 7 12 3 20 -7 21 -13 19 -13 -6z"/>
<path d="M2316 500 c5 -8 9 -18 9 -22 0 -3 3 -9 7 -13 3 -4 5 0 4 9 -1 9 -8
22 -16 29 -10 10 -11 9 -4 -3z"/>
<path d="M5977 489 c4 -13 8 -18 11 -10 2 7 -1 18 -6 23 -8 8 -9 4 -5 -13z"/>
<path d="M6566 483 c-6 -14 -5 -15 5 -6 7 7 10 15 7 18 -3 3 -9 -2 -12 -12z"/>
<path d="M5432 452 c-7 -5 -15 -26 -17 -48 -3 -21 -3 -33 1 -26 3 6 9 10 14 7
4 -3 6 3 3 13 -5 22 21 47 41 39 25 -10 48 -65 41 -98 -8 -37 -37 -38 -70 -3
-20 21 -25 23 -25 10 0 -23 47 -68 67 -64 49 9 54 102 8 152 -25 27 -41 31
-63 18z"/>
<path d="M5991 455 c0 -5 6 -21 14 -35 8 -14 14 -20 14 -15 0 6 -6 21 -14 35
-8 14 -14 21 -14 15z"/>
<path d="M6523 435 c-13 -13 -23 -32 -23 -42 0 -13 7 -8 21 15 12 17 25 32 30
32 5 0 9 5 9 10 0 16 -13 11 -37 -15z"/>
<path d="M1941 414 c0 -11 3 -14 6 -6 3 7 2 16 -1 19 -3 4 -6 -2 -5 -13z"/>
<path d="M6254 391 c14 -27 56 -49 56 -30 0 5 -6 9 -14 9 -8 0 -17 9 -21 19
-3 11 -12 22 -20 25 -13 5 -13 2 -1 -23z"/>
<path d="M4741 375 c-24 -19 -47 -35 -50 -35 -3 0 -24 -16 -45 -35 -22 -19
-35 -35 -29 -35 5 0 18 9 29 21 10 12 39 32 64 45 63 33 109 74 83 74 -5 0
-28 -16 -52 -35z"/>
<path d="M1957 320 c4 -41 6 -92 5 -112 -2 -23 2 -38 9 -38 8 0 8 -4 -1 -15
-6 -8 -8 -20 -4 -27 12 -19 12 -48 0 -48 -6 0 -5 -4 3 -9 21 -13 6 -39 -26
-44 -16 -3 -10 -4 15 -3 44 2 58 -10 20 -17 -13 -2 -2 -5 25 -6 29 0 47 3 47
10 0 18 -51 223 -59 234 -3 6 -14 42 -23 80 l-17 70 6 -75z"/>
<path d="M2123 375 c0 -8 4 -12 9 -9 5 3 6 10 3 15 -9 13 -12 11 -12 -6z"/>
<path d="M6021 385 c1 -19 18 -51 18 -35 0 8 -4 22 -9 30 -5 8 -9 11 -9 5z"/>
<path d="M2360 369 c0 -6 5 -19 10 -30 6 -10 13 -48 16 -84 4 -54 2 -65 -11
-65 -8 0 -15 -4 -15 -10 0 -5 5 -10 11 -10 6 0 9 -7 6 -15 -4 -8 -2 -17 4 -21
6 -3 7 -19 4 -35 -5 -21 -3 -29 7 -29 11 0 11 -2 -1 -9 -11 -7 -10 -13 4 -35
10 -14 22 -26 27 -26 9 0 2 151 -9 200 -3 14 -7 32 -7 40 -3 35 -19 96 -28
107 -5 7 -7 17 -3 23 3 5 1 10 -4 10 -6 0 -11 -5 -11 -11z"/>
<path d="M6320 351 c0 -5 5 -13 12 -17 7 -4 8 -3 4 4 -4 7 -3 12 3 12 5 0 12
-5 14 -10 3 -6 4 -5 3 2 -3 16 -36 24 -36 9z"/>
<path d="M2437 329 c4 -13 8 -18 11 -10 2 7 -1 18 -6 23 -8 8 -9 4 -5 -13z"/>
<path d="M1540 330 c0 -5 5 -10 10 -10 6 0 10 5 10 10 0 6 -4 10 -10 10 -5 0
-10 -4 -10 -10z"/>
<path d="M6047 275 c3 -22 13 -53 23 -70 15 -26 30 -73 44 -140 2 -12 4 -7 5
12 2 46 -21 134 -36 140 -7 3 -13 13 -13 22 -1 9 -7 30 -15 46 l-14 30 6 -40z"/>
<path d="M2460 271 c0 -6 4 -13 10 -16 6 -3 7 1 4 9 -7 18 -14 21 -14 7z"/>
<path d="M3215 260 c3 -5 8 -10 11 -10 2 0 4 5 4 10 0 6 -5 10 -11 10 -5 0 -7
-4 -4 -10z"/>
<path d="M4566 249 c-11 -10 -15 -19 -9 -19 5 0 18 9 28 20 23 26 6 25 -19 -1z"/>
<path d="M2481 230 c0 -8 4 -22 9 -30 12 -18 12 -2 0 25 -6 13 -9 15 -9 5z"/>
<path d="M4494 191 c-21 -15 -48 -39 -59 -52 l-20 -24 20 16 c11 9 42 33 68
53 27 20 44 36 39 36 -5 0 -27 -13 -48 -29z"/>
<path d="M3260 180 c13 -25 19 -33 60 -77 11 -13 15 -23 9 -23 -5 0 -7 -5 -4
-10 4 -6 11 -8 16 -5 5 4 9 2 9 -4 0 -6 11 -22 25 -36 l26 -25 202 1 202 1
-60 19 c-72 23 -124 24 -189 4 -107 -33 -159 -14 -222 80 -18 28 -45 62 -60
75 l-27 25 13 -25z"/>
<path d="M1854 169 c-3 -6 0 -16 7 -21 9 -6 10 -11 3 -14 -6 -2 -9 -17 -6 -33
4 -27 2 -28 -35 -28 -32 1 -38 -2 -35 -19 2 -10 3 -27 3 -36 0 -30 37 -22 41
8 2 18 11 30 27 36 l25 9 -20 -22 c-10 -12 -13 -19 -5 -14 11 6 13 4 8 -8 -3
-9 1 -18 9 -21 29 -11 36 -6 30 21 -5 17 -3 29 6 34 10 7 9 9 -4 9 -20 0 -24
15 -7 26 8 5 6 10 -5 16 -9 5 -16 22 -16 38 0 30 -13 39 -26 19z"/>
<path d="M4130 160 c-20 -20 -27 -71 -14 -105 16 -41 108 -59 137 -27 22 24
22 38 0 17 -13 -13 -27 -16 -61 -11 -57 8 -72 20 -72 61 0 25 7 39 27 55 31
25 65 20 101 -12 12 -12 22 -17 22 -10 0 6 -12 20 -26 31 -34 27 -88 27 -114
1z"/>
<path d="M2501 155 c0 -5 6 -21 14 -35 8 -14 14 -20 14 -15 0 6 -6 21 -14 35
-8 14 -14 21 -14 15z"/>
<path d="M6420 150 c0 -5 5 -10 10 -10 6 0 10 5 10 10 0 6 -4 10 -10 10 -5 0
-10 -4 -10 -10z"/>
<path d="M1774 124 c10 -9 27 -14 43 -11 l28 4 -28 2 c-16 0 -25 5 -22 11 3 6
-3 10 -15 10 -19 0 -20 -1 -6 -16z"/>
<path d="M1650 116 c0 -8 6 -16 14 -19 10 -4 12 0 9 14 -6 22 -23 26 -23 5z"/>
<path d="M4353 53 c-28 -29 -48 -53 -45 -53 10 1 32 20 71 63 54 58 32 49 -26
-10z"/>
<path d="M6350 101 c0 -6 5 -13 10 -16 6 -3 10 1 10 9 0 9 -4 16 -10 16 -5 0
-10 -4 -10 -9z"/>
<path d="M1785 90 c27 -12 35 -12 35 0 0 6 -12 10 -27 9 -25 0 -26 -1 -8 -9z"/>
<path d="M2540 64 c0 -7 7 -25 15 -40 8 -16 15 -24 15 -18 0 7 -7 25 -15 40
-8 16 -15 24 -15 18z"/>
<path d="M6350 60 c0 -5 7 -10 15 -10 8 0 15 5 15 10 0 6 -7 10 -15 10 -8 0
-15 -4 -15 -10z"/>
<path d="M6170 50 c0 -5 5 -10 10 -10 6 0 10 5 10 10 0 6 -4 10 -10 10 -5 0
-10 -4 -10 -10z"/>
<path d="M6120 20 c0 -11 4 -20 9 -20 5 0 7 9 4 20 -3 11 -7 20 -9 20 -2 0 -4
-9 -4 -20z"/>
<path d="M1928 3 c7 -3 16 -2 19 1 4 3 -2 6 -13 5 -11 0 -14 -3 -6 -6z"/>
</g>
</svg>
